<?xml version="1.0" encoding="utf-8"?>
<!-- Generator: Adobe Illustrator 16.0.0, SVG Export Plug-In . SVG Version: 6.00 Build 0)  -->
<!DOCTYPE svg PUBLIC "-//W3C//DTD SVG 1.1//EN" "http://www.w3.org/Graphics/SVG/1.1/DTD/svg11.dtd">
<svg version="1.1" id="Laag_1" xmlns="http://www.w3.org/2000/svg" xmlns:xlink="http://www.w3.org/1999/xlink" x="0px" y="0px"
	 width="1225px" height="102.667px" viewBox="0 0 1225 102.667" enable-background="new 0 0 1225 102.667" xml:space="preserve">
<g>
	<g>
		<path fill-rule="evenodd" clip-rule="evenodd" fill="#893030" d="M1226,0.667c0,32.833-0.05,65.667,0.085,98.5
			c0.012,2.983-0.604,3.581-3.585,3.58c-406.333-0.084-812.666-0.084-1219,0c-2.981,0.001-3.597-0.596-3.585-3.58
			C0.05,66.333,0,33.5,0,0.667c7.332,0.013,14.665,0.025,21.997,0.038c0.376,1.868,0.33,3.419-1.443,4.848
			c-3.85,3.099-5.697,10.35-4.123,14.79c0.544,1.536,1.505,2.708,3.102,2.896c3.917,0.462,7.938,1.357,11.463-1.439
			c29.006,4.203,57.919,8.992,86.69,14.56c9.915,1.919,18.575,6.021,25.485,14.378c8.497,10.276,20.424,15.805,33.392,18.778
			c9.249,2.12,18.336,4.787,27.39,7.602c5.082,1.58,10.13,3.709,15.345,4.343c26.803,3.259,53.605,4.584,80.634,1.587
			c14.258-1.58,27.623-5.73,41.105-9.906c2.606-0.808,5.117-1.074,7.842-0.877c8.47,0.615,16.806,2.422,25.352,2.42
			c161.146-0.042,322.293,0.06,483.438-0.172c15.927-0.022,31.929-1.15,47.097-7.405c12.239-5.048,13.327-6.132,13.358-19.458
			c0.628-0.676,1.258-1.352,1.888-2.027c6.893,1.873,14.397,2.513,20.349,6.511c10.305,6.921,21.38,7.094,33.041,6.228
			c8.8-0.653,17.537-2.811,26.283-2.491c12.879,0.47,24.799-3.077,36.438-7.392c22.124-8.202,44.22-15.76,68.368-12.932
			c0.492,0.058,1.006,0.056,1.496-0.012c9.05-1.245,18.609,0.845,27.197-2.716c11.898-4.932,24.044-8.714,36.607-11.382
			c2.073-0.44,5.77-0.698,5.323-3.337c-0.441-2.615-3.981-1.422-6.155-1.479c-31.637-0.833-63.242,1.063-94.871,1.162
			c-18.771,0.059-37.519-0.724-56.247,2.715c-11.568,2.125-23.52,2.219-34.465,7.203c-4.665,2.124-9.452,2.932-14.542,2.903
			c-17.153-0.094-34.309-0.07-51.462,0.022c-1.795,0.01-3.979-0.99-5.392,1.141c0.706,0.607,1.411,1.216,2.117,1.824
			c2.509,3.284,1.215,7.569,2.909,11.067c-0.004,0.446-0.008,0.892-0.012,1.337c-9.068-1.283-18.169-2.043-27.317-2.672
			c-9.158-0.631-18.398,0.366-27.43-1.063c-14.856-2.352-29.875-3.316-44.771-3.355c-132.626-0.345-265.252-0.2-397.878-0.195
			c-4.359,0-8.995-0.058-12.683,2.188c-7.571,4.614-15.707,4.996-24.11,4.747c-5.878-0.175-6.049-0.329-4.51-5.896
			c1.916-6.928,0.422-10.025-6.006-13.314c-4.511-2.309-9.245-3.844-14.214-4.536c-10.229-1.426-20.471-2.486-30.852-2.306
			c-11.485,0.2-22.995,0.15-34.468-0.373c-17.58-0.804-34.911-4.643-52.687-3.717c-13.293,0.692-26.679-0.421-39.975,0.239
			c-23.894,1.187-47.131-2.209-70.103-8.306c-0.329-2.241-0.658-4.482-0.987-6.724c4.667-0.015,9.333-0.042,13.999-0.042
			C504.003,0.667,865.002,0.667,1226,0.667z"/>
		<path fill-rule="evenodd" clip-rule="evenodd" fill="#933D3C" d="M1226,0.667c-360.998,0-721.997,0-1082.995,0.002
			c-4.667,0-9.333,0.027-13.999,0.041c-17.227-0.013-34.453-0.022-51.68-0.041C74.514,0.665,71.68,0.793,69-0.333
			c384.167,0,768.333-0.002,1152.5,0.062C1222.963-0.272,1224.891-1.425,1226,0.667z"/>
		<path fill-rule="evenodd" clip-rule="evenodd" fill="#893032" d="M69-0.333c2.68,1.127,5.514,0.998,8.326,1.002
			c17.227,0.019,34.453,0.028,51.68,0.041c0.329,2.242,0.658,4.483,0.987,6.727c-4.607-0.872-9.27-0.729-13.926-0.838
			c-6.974-0.164-13.951,0.452-20.925-0.555C77.635,3.516,60.011,3.341,42.373,3.894C38.048,4.03,33.77,4.745,29.633,6.14
			c-5.459,1.842-9.017,6.197-8.146,10.473c1.084,5.326,5.568,4.857,9.508,5.186c-3.525,2.797-7.545,1.901-11.463,1.439
			c-1.597-0.188-2.558-1.359-3.102-2.896c-1.574-4.44,0.273-11.691,4.123-14.79c1.773-1.429,1.819-2.979,1.443-4.848
			c1.812-0.004,3.627-0.079,5.436,0.001C35.32,1.055,43.203,1.361,51-0.333C57-0.333,63-0.333,69-0.333z"/>
		<path fill-rule="evenodd" clip-rule="evenodd" fill="#933D3C" d="M51-0.333c-7.797,1.694-15.68,1.389-23.568,1.039
			c-1.808-0.08-3.624-0.005-5.436-0.001C14.665,0.692,7.332,0.679,0,0.667c0.396-2.146,2.049-0.933,3-0.938
			C19-0.359,35-0.333,51-0.333z"/>
		<path fill-rule="evenodd" clip-rule="evenodd" fill="#691E1F" d="M30.995,21.798c-3.94-0.328-8.424,0.141-9.508-5.186
			c-0.87-4.275,2.688-8.631,8.146-10.473c4.137-1.396,8.415-2.11,12.74-2.246c17.638-0.553,35.262-0.378,52.769,2.149
			c6.974,1.007,13.951,0.391,20.925,0.555c4.656,0.109,9.319-0.034,13.926,0.838c22.972,6.095,46.209,9.49,70.103,8.304
			c13.296-0.66,26.682,0.453,39.975-0.239c17.775-0.926,35.106,2.913,52.687,3.717c11.473,0.523,22.982,0.573,34.468,0.373
			c10.381-0.181,20.623,0.88,30.852,2.306c4.969,0.692,9.703,2.228,14.214,4.536c6.428,3.289,7.922,6.387,6.006,13.314
			c-1.539,5.566-1.368,5.721,4.51,5.896c8.403,0.249,16.539-0.133,24.11-4.747c3.688-2.246,8.323-2.188,12.683-2.188
			c132.626-0.005,265.252-0.149,397.878,0.195c14.896,0.039,29.915,1.004,44.771,3.355c9.031,1.43,18.271,0.433,27.43,1.063
			c9.148,0.629,18.249,1.389,27.316,2.669c0.376,0.55,0.753,1.104,1.129,1.657c-0.031,13.326-1.119,14.41-13.358,19.458
			c-15.168,6.255-31.17,7.383-47.097,7.405c-161.146,0.231-322.292,0.13-483.438,0.172c-8.546,0.002-16.882-1.805-25.352-2.42
			c-2.725-0.197-5.235,0.069-7.842,0.877c-13.482,4.176-26.848,8.326-41.105,9.906c-27.028,2.997-53.831,1.672-80.634-1.587
			c-5.215-0.634-10.263-2.763-15.345-4.343c-9.054-2.814-18.141-5.481-27.39-7.602c-12.967-2.974-24.895-8.502-33.392-18.778
			c-6.91-8.357-15.571-12.459-25.485-14.378C88.914,30.791,60,26.001,30.995,21.798z"/>
		<path fill-rule="evenodd" clip-rule="evenodd" fill="#691E1F" d="M917.007,44.656c-1.694-3.498-0.4-7.783-2.91-11.067
			c-0.706-0.608-1.411-1.216-2.116-1.824c1.413-2.131,3.597-1.131,5.392-1.141c17.153-0.093,34.309-0.116,51.462-0.022
			c5.09,0.028,9.877-0.779,14.542-2.903c10.945-4.984,22.896-5.078,34.465-7.203c18.729-3.438,37.476-2.656,56.247-2.715
			c31.629-0.1,63.234-1.995,94.871-1.162c2.174,0.058,5.714-1.136,6.155,1.479c0.446,2.639-3.25,2.896-5.323,3.337
			c-12.563,2.668-24.709,6.45-36.607,11.382c-8.588,3.561-18.147,1.471-27.197,2.716c-0.49,0.067-1.004,0.069-1.496,0.012
			c-24.148-2.828-46.244,4.729-68.368,12.932c-11.64,4.314-23.56,7.861-36.438,7.392c-8.746-0.319-17.483,1.838-26.283,2.491
			c-11.661,0.866-22.736,0.693-33.041-6.228c-5.951-3.998-13.456-4.638-20.349-6.51C919.01,45.299,918.008,44.978,917.007,44.656z"
			/>
		<path fill-rule="evenodd" clip-rule="evenodd" fill="#7B282B" d="M917.007,44.656c1.001,0.322,2.003,0.644,3.004,0.965
			c-0.63,0.675-1.26,1.351-1.888,2.026c-0.376-0.554-0.753-1.107-1.129-1.657C916.999,45.547,917.003,45.102,917.007,44.656z"/>
		<path fill-rule="evenodd" clip-rule="evenodd" fill="#7D292A" d="M911.98,31.764c0.705,0.608,1.41,1.216,2.116,1.824
			C913.392,32.98,912.687,32.372,911.98,31.764z"/>
	</g>
</g>
</svg>
