<?xml version="1.0" encoding="utf-8"?>
<!-- Generator: Adobe Illustrator 16.0.0, SVG Export Plug-In . SVG Version: 6.00 Build 0)  -->
<!DOCTYPE svg PUBLIC "-//W3C//DTD SVG 1.1//EN" "http://www.w3.org/Graphics/SVG/1.1/DTD/svg11.dtd">
<svg version="1.1" id="Layer_1" xmlns="http://www.w3.org/2000/svg" xmlns:xlink="http://www.w3.org/1999/xlink" x="0px" y="0px"
	 width="960.941px" height="1093.89px" viewBox="0 0 960.941 1093.89" enable-background="new 0 0 960.941 1093.89"
	 xml:space="preserve">
<g>
	<g>
		
			<linearGradient id="XMLID_4_" gradientUnits="userSpaceOnUse" x1="650.6753" y1="774.77" x2="564.3646" y2="157.7462" gradientTransform="matrix(1 0 0 -1 -87.1299 970.2598)">
			<stop  offset="0" style="stop-color:#F16023"/>
			<stop  offset="0.9805" style="stop-color:#FAA74A"/>
		</linearGradient>
		<rect id="XMLID_2_" x="-189.317" y="-6.52" fill="url(#XMLID_4_)" width="1411.199" height="1079.77"/>
	</g>
	<g>
		<defs>
			<rect id="SVGID_1_" x="-189.317" y="-6.52" width="1411.199" height="1079.77"/>
		</defs>
		<clipPath id="SVGID_2_">
			<use xlink:href="#SVGID_1_"  overflow="visible"/>
		</clipPath>
		
			<radialGradient id="SVGID_3_" cx="824.5396" cy="149.415" r="411.8091" gradientTransform="matrix(1 0 0 -1.2767 -87.1299 906.9812)" gradientUnits="userSpaceOnUse">
			<stop  offset="0" style="stop-color:#FFF200"/>
			<stop  offset="0.2578" style="stop-color:#FFEE00"/>
			<stop  offset="0.4012" style="stop-color:#FFE300"/>
			<stop  offset="0.5165" style="stop-color:#F9D600"/>
			<stop  offset="0.6169" style="stop-color:#F1C404"/>
			<stop  offset="0.7076" style="stop-color:#E7AD10"/>
			<stop  offset="0.7914" style="stop-color:#DB9316"/>
			<stop  offset="0.8698" style="stop-color:#CE7618"/>
			<stop  offset="0.9419" style="stop-color:#BF5717"/>
			<stop  offset="1" style="stop-color:#B23716"/>
		</radialGradient>
		<polygon opacity="0.4" clip-path="url(#SVGID_2_)" fill="url(#SVGID_3_)" enable-background="new    " points="516.283,1073.25 
			1075.625,-6.52 1221.882,-6.52 1221.882,197.819 		"/>
	</g>
	<g>
		<defs>
			<rect id="SVGID_4_" x="-189.317" y="-6.52" width="1411.199" height="1079.77"/>
		</defs>
		<clipPath id="SVGID_5_">
			<use xlink:href="#SVGID_4_"  overflow="visible"/>
		</clipPath>
		<radialGradient id="SVGID_6_" cx="510.0591" cy="803.0249" r="735.8334" gradientUnits="userSpaceOnUse">
			<stop  offset="0" style="stop-color:#FFF200"/>
			<stop  offset="0.2578" style="stop-color:#FFEE00"/>
			<stop  offset="0.4012" style="stop-color:#FFE300"/>
			<stop  offset="0.5165" style="stop-color:#F9D600"/>
			<stop  offset="0.6169" style="stop-color:#F1C404"/>
			<stop  offset="0.7076" style="stop-color:#E7AD10"/>
			<stop  offset="0.7914" style="stop-color:#DB9316"/>
			<stop  offset="0.8698" style="stop-color:#CE7618"/>
			<stop  offset="0.9419" style="stop-color:#BF5717"/>
			<stop  offset="1" style="stop-color:#B23716"/>
		</radialGradient>
		<polygon opacity="0.4" clip-path="url(#SVGID_5_)" fill="url(#SVGID_6_)" enable-background="new    " points="516.283,1073.25 
			-43.059,-6.52 -189.317,-6.52 -189.317,197.819 		"/>
	</g>
	<g>
		<defs>
			<rect id="SVGID_7_" x="-189.317" y="-6.52" width="1411.199" height="1079.77"/>
		</defs>
		<clipPath id="SVGID_8_">
			<use xlink:href="#SVGID_7_"  overflow="visible"/>
		</clipPath>
		
			<radialGradient id="SVGID_9_" cx="550.0552" cy="66.9199" r="538.6064" gradientTransform="matrix(1 0 0 -1.2767 -87.1299 906.9812)" gradientUnits="userSpaceOnUse">
			<stop  offset="0" style="stop-color:#FFF200"/>
			<stop  offset="0.2578" style="stop-color:#FFEE00"/>
			<stop  offset="0.4012" style="stop-color:#FFE300"/>
			<stop  offset="0.5165" style="stop-color:#F9D600"/>
			<stop  offset="0.6169" style="stop-color:#F1C404"/>
			<stop  offset="0.7076" style="stop-color:#E7AD10"/>
			<stop  offset="0.7914" style="stop-color:#DB9316"/>
			<stop  offset="0.8698" style="stop-color:#CE7618"/>
			<stop  offset="0.9419" style="stop-color:#BF5717"/>
			<stop  offset="1" style="stop-color:#B23716"/>
		</radialGradient>
		<polygon opacity="0.4" clip-path="url(#SVGID_8_)" fill="url(#SVGID_9_)" enable-background="new    " points="516.283,1073.25 
			354.326,-204.671 221.013,-281.474 155.18,-95.221 		"/>
	</g>
	<g>
		<defs>
			<rect id="SVGID_10_" x="-189.317" y="-6.52" width="1411.199" height="1079.77"/>
		</defs>
		<clipPath id="SVGID_11_">
			<use xlink:href="#SVGID_10_"  overflow="visible"/>
		</clipPath>
		
			<radialGradient id="SVGID_12_" cx="733.0435" cy="291.9067" r="385.0949" gradientTransform="matrix(1 0 0 -1.2767 -87.1299 906.9812)" gradientUnits="userSpaceOnUse">
			<stop  offset="0" style="stop-color:#FFF200"/>
			<stop  offset="0.2578" style="stop-color:#FFEE00"/>
			<stop  offset="0.4012" style="stop-color:#FFE300"/>
			<stop  offset="0.5165" style="stop-color:#F9D600"/>
			<stop  offset="0.6169" style="stop-color:#F1C404"/>
			<stop  offset="0.7076" style="stop-color:#E7AD10"/>
			<stop  offset="0.7914" style="stop-color:#DB9316"/>
			<stop  offset="0.8698" style="stop-color:#CE7618"/>
			<stop  offset="0.9419" style="stop-color:#BF5717"/>
			<stop  offset="1" style="stop-color:#B23716"/>
		</radialGradient>
		<polygon opacity="0.4" clip-path="url(#SVGID_11_)" fill="url(#SVGID_12_)" enable-background="new    " points="516.283,1073.25 
			678.24,-204.671 811.552,-281.474 877.386,-95.221 		"/>
	</g>
	<g>
		<defs>
			<rect id="SVGID_13_" x="-189.317" y="-6.52" width="1411.199" height="1079.77"/>
		</defs>
		<clipPath id="SVGID_14_">
			<use xlink:href="#SVGID_13_"  overflow="visible"/>
		</clipPath>
		
			<radialGradient id="SVGID_15_" cx="835.0376" cy="6.9219" r="410.6205" gradientTransform="matrix(1 0 0 -1.2767 -87.1299 906.9812)" gradientUnits="userSpaceOnUse">
			<stop  offset="0" style="stop-color:#FFF200"/>
			<stop  offset="0.2578" style="stop-color:#FFEE00"/>
			<stop  offset="0.4012" style="stop-color:#FFE300"/>
			<stop  offset="0.5165" style="stop-color:#F9D600"/>
			<stop  offset="0.6169" style="stop-color:#F1C404"/>
			<stop  offset="0.7076" style="stop-color:#E7AD10"/>
			<stop  offset="0.7914" style="stop-color:#DB9316"/>
			<stop  offset="0.8698" style="stop-color:#CE7618"/>
			<stop  offset="0.9419" style="stop-color:#BF5717"/>
			<stop  offset="1" style="stop-color:#B23716"/>
		</radialGradient>
		<polygon opacity="0.4" clip-path="url(#SVGID_14_)" fill="url(#SVGID_15_)" enable-background="new    " points="516.283,1073.25 
			1404.673,449.175 1534.167,535.974 1459.767,716.892 		"/>
	</g>
	<g>
		<defs>
			<rect id="SVGID_16_" x="-189.317" y="-6.52" width="1411.199" height="1079.77"/>
		</defs>
		<clipPath id="SVGID_17_">
			<use xlink:href="#SVGID_16_"  overflow="visible"/>
		</clipPath>
		
			<radialGradient id="SVGID_18_" cx="320.5645" cy="0.9219" r="361.5847" gradientTransform="matrix(1 0 0 -1.2767 -87.1299 906.9812)" gradientUnits="userSpaceOnUse">
			<stop  offset="0" style="stop-color:#FFF200"/>
			<stop  offset="0.2578" style="stop-color:#FFEE00"/>
			<stop  offset="0.4012" style="stop-color:#FFE300"/>
			<stop  offset="0.5165" style="stop-color:#F9D600"/>
			<stop  offset="0.6169" style="stop-color:#F1C404"/>
			<stop  offset="0.7076" style="stop-color:#E7AD10"/>
			<stop  offset="0.7914" style="stop-color:#DB9316"/>
			<stop  offset="0.8698" style="stop-color:#CE7618"/>
			<stop  offset="0.9419" style="stop-color:#BF5717"/>
			<stop  offset="1" style="stop-color:#B23716"/>
		</radialGradient>
		<polygon opacity="0.4" clip-path="url(#SVGID_17_)" fill="url(#SVGID_18_)" enable-background="new    " points="516.283,1073.25 
			-372.107,449.175 -501.603,535.974 -427.202,716.892 		"/>
	</g>
</g>
<g opacity="0.5">
	
		<image overflow="visible" enable-background="new    " width="1779" height="1779" xlink:href="BA99DEAA.png"  transform="matrix(0.2395 0 0 0.2395 285.6548 750.6108)">
	</image>
</g>
<linearGradient id="SVGID_19_" gradientUnits="userSpaceOnUse" x1="585.7612" y1="219.8745" x2="585.7612" y2="-130.7482" gradientTransform="matrix(1 0 0 -1 -87.1299 970.2598)">
	<stop  offset="0" style="stop-color:#FFF200"/>
	<stop  offset="1" style="stop-color:#B23716"/>
</linearGradient>
<circle fill="url(#SVGID_19_)" cx="498.632" cy="959.854" r="163.534"/>
<g>
	<g>
		<path id="XMLID_1_" fill="#662020" d="M-1.027,1032.835c0,0,6.357,9.666,22.189-6.332c15.832-15.996,28.786-29.326,64.768-17.328
			s97.152-9.332,117.302-25.662s126.608-58.93,276.583,5.332c59.112,25.328,95.553,6.32,147.127-16.33
			c28.834-12.666,138.389-27.186,224.688,22.994c64.77,37.66,81.68,32.662,109.025,28.996v69.73H-1.028L-1.027,1032.835z"/>
	</g>
	<g>
		<defs>
			<path id="SVGID_20_" d="M-1.027,1032.835c0,0,6.357,9.666,22.189-6.332c15.832-15.996,28.786-29.326,64.768-17.328
				s97.152-9.332,117.302-25.662s126.608-58.93,276.583,5.332c59.112,25.328,95.553,6.32,147.127-16.33
				c28.834-12.666,138.389-27.186,224.688,22.994c64.77,37.66,81.68,32.662,109.025,28.996v69.73H-1.028L-1.027,1032.835z"/>
		</defs>
		<clipPath id="SVGID_21_">
			<use xlink:href="#SVGID_20_"  overflow="visible"/>
		</clipPath>
		<path clip-path="url(#SVGID_21_)" fill="#4E1717" d="M752.421,931.224c0,0-141.492,44.49,12.959,65.984
			c103.24,14.367,145.518,59.133,132.564,88.627c-12.953,29.492,60.445,30.99,75.559,18.994
			c15.111-11.998,51.813-129.967,51.813-129.967l-68.004-21.996L752.421,931.224z"/>
	</g>
	<g>
		<defs>
			<path id="SVGID_22_" d="M-1.027,1032.835c0,0,6.357,9.666,22.189-6.332c15.832-15.996,28.786-29.326,64.768-17.328
				s97.152-9.332,117.302-25.662s126.608-58.93,276.583,5.332c59.112,25.328,95.553,6.32,147.127-16.33
				c28.834-12.666,138.389-27.186,224.688,22.994c64.77,37.66,81.68,32.662,109.025,28.996v69.73H-1.028L-1.027,1032.835z"/>
		</defs>
		<clipPath id="SVGID_23_">
			<use xlink:href="#SVGID_22_"  overflow="visible"/>
		</clipPath>
		<path clip-path="url(#SVGID_23_)" fill="#4E1717" d="M287.769,932.224c0,1.439-8.68,40.49,56.085,41.99
			c64.765,1.5,94.988,0.5,120.895,29.492c25.907,28.994,52.907,51.787,108.711,32.889c28.617-9.691,56.557-20.795,73.59-34.32
			c52.646-41.811,151.264-43.057,151.264-43.057s77.26-29.719-194.168-26.494c-3.402,0.041-116.686-0.5-116.686-0.5H287.769
			L287.769,932.224z"/>
	</g>
	<g>
		<defs>
			<path id="SVGID_24_" d="M-1.027,1032.835c0,0,6.357,9.666,22.189-6.332c15.832-15.996,28.786-29.326,64.768-17.328
				s97.152-9.332,117.302-25.662s126.608-58.93,276.583,5.332c59.112,25.328,95.553,6.32,147.127-16.33
				c28.834-12.666,138.389-27.186,224.688,22.994c64.77,37.66,81.68,32.662,109.025,28.996v69.73H-1.028L-1.027,1032.835z"/>
		</defs>
		<clipPath id="SVGID_25_">
			<use xlink:href="#SVGID_24_"  overflow="visible"/>
		</clipPath>
		<path clip-path="url(#SVGID_25_)" fill="#4E1717" d="M68.067,994.71c0,0,82.036-64.484,112.259-51.488
			c30.223,12.996,88.512,11.281,36.7,58.484c-29.575,26.945-111.894,44.08-131.689,33.492
			c-45.909-24.559-87.444,63.984-86.365,67.984c1.079,3.998-119.803,9.447-123.041,9.945c-3.238,0.5,18.35-2.949,15.112-13.945
			c-3.238-10.998-28.065-59.984-22.667-64.984C-126.228,1029.201,68.067,994.71,68.067,994.71z"/>
	</g>
	<g>
		<defs>
			<path id="SVGID_26_" d="M-1.027,1032.835c0,0,6.357,9.666,22.189-6.332c15.832-15.996,28.786-29.326,64.768-17.328
				s97.152-9.332,117.302-25.662s126.608-58.93,276.583,5.332c59.112,25.328,95.553,6.32,147.127-16.33
				c28.834-12.666,138.389-27.186,224.688,22.994c64.77,37.66,81.68,32.662,109.025,28.996v69.73H-1.028L-1.027,1032.835z"/>
		</defs>
		<clipPath id="SVGID_27_">
			<use xlink:href="#SVGID_26_"  overflow="visible"/>
		</clipPath>
		<path clip-path="url(#SVGID_27_)" fill="#381514" d="M511.685,1101.183c0,0,102.531-16.494,142.486-37.988
			c39.955-21.496,83.133-50.988,121.99-16.996c38.859,33.99,34.244,59.482,33.314,60.982
			C808.544,1108.681,511.685,1101.183,511.685,1101.183z"/>
	</g>
	<g>
		<defs>
			<path id="SVGID_28_" d="M-1.027,1032.835c0,0,6.357,9.666,22.189-6.332c15.832-15.996,28.786-29.326,64.768-17.328
				s97.152-9.332,117.302-25.662s126.608-58.93,276.583,5.332c59.112,25.328,95.553,6.32,147.127-16.33
				c28.834-12.666,138.389-27.186,224.688,22.994c64.77,37.66,81.68,32.662,109.025,28.996v69.73H-1.028L-1.027,1032.835z"/>
		</defs>
		<clipPath id="SVGID_29_">
			<use xlink:href="#SVGID_28_"  overflow="visible"/>
		</clipPath>
		<path clip-path="url(#SVGID_29_)" fill="#381514" d="M194.358,1098.683c3.239,0,16.191,5,49.653-16.994
			c33.461-21.994,58.288-56.195,100.386-30.598c42.097,25.6,34.541,58.99,22.667,62.039
			C355.191,1116.179,194.358,1098.683,194.358,1098.683z"/>
	</g>
</g>
</svg>
