<?xml version="1.0" encoding="utf-8"?>
<!-- Generator: Adobe Illustrator 16.0.0, SVG Export Plug-In . SVG Version: 6.00 Build 0)  -->
<!DOCTYPE svg PUBLIC "-//W3C//DTD SVG 1.1//EN" "http://www.w3.org/Graphics/SVG/1.1/DTD/svg11.dtd">
<svg version="1.1" id="Layer_1" xmlns="http://www.w3.org/2000/svg" xmlns:xlink="http://www.w3.org/1999/xlink" x="0px" y="0px"
	 width="960.94px" height="1093.89px" viewBox="0 0 960.94 1093.89" enable-background="new 0 0 960.94 1093.89"
	 xml:space="preserve">
<g>
	<defs>
		<rect id="XMLID_2_" x="-189.317" y="-6.52" width="1411.2" height="1079.77"/>
	</defs>
	<linearGradient id="XMLID_4_" gradientUnits="userSpaceOnUse" x1="563.5449" y1="195.4907" x2="477.2342" y2="812.5151">
		<stop  offset="0" style="stop-color:#F16023"/>
		<stop  offset="0.9805" style="stop-color:#FAA74A"/>
	</linearGradient>
	<use xlink:href="#XMLID_2_"  overflow="visible" fill="url(#XMLID_4_)"/>
	<clipPath id="XMLID_5_">
		<use xlink:href="#XMLID_2_"  overflow="visible"/>
	</clipPath>
	
		<radialGradient id="SVGID_1_" cx="737.4092" cy="793.5771" r="411.8097" gradientTransform="matrix(1 0 0 1.2767 0 -296.9369)" gradientUnits="userSpaceOnUse">
		<stop  offset="0" style="stop-color:#FFF200"/>
		<stop  offset="0.2578" style="stop-color:#FFEE00"/>
		<stop  offset="0.4012" style="stop-color:#FFE300"/>
		<stop  offset="0.5165" style="stop-color:#F9D600"/>
		<stop  offset="0.6169" style="stop-color:#F1C404"/>
		<stop  offset="0.7076" style="stop-color:#E7AD10"/>
		<stop  offset="0.7914" style="stop-color:#DB9316"/>
		<stop  offset="0.8698" style="stop-color:#CE7618"/>
		<stop  offset="0.9419" style="stop-color:#BF5717"/>
		<stop  offset="1" style="stop-color:#B23716"/>
	</radialGradient>
	<polygon opacity="0.4" clip-path="url(#XMLID_5_)" fill="url(#SVGID_1_)" points="516.282,1073.25 1075.624,-6.52 1221.883,-6.52 
		1221.883,197.819 	"/>
	
		<radialGradient id="SVGID_2_" cx="282.9316" cy="747.0801" r="364.8553" fx="18.3615" fy="998.321" gradientTransform="matrix(1 0 0 1.2767 0 -296.9369)" gradientUnits="userSpaceOnUse">
		<stop  offset="0" style="stop-color:#FFF200"/>
		<stop  offset="0.2578" style="stop-color:#FFEE00"/>
		<stop  offset="0.4012" style="stop-color:#FFE300"/>
		<stop  offset="0.5165" style="stop-color:#F9D600"/>
		<stop  offset="0.6169" style="stop-color:#F1C404"/>
		<stop  offset="0.7076" style="stop-color:#E7AD10"/>
		<stop  offset="0.7914" style="stop-color:#DB9316"/>
		<stop  offset="0.8698" style="stop-color:#CE7618"/>
		<stop  offset="0.9419" style="stop-color:#BF5717"/>
		<stop  offset="1" style="stop-color:#B23716"/>
	</radialGradient>
	<polygon opacity="0.4" clip-path="url(#XMLID_5_)" fill="url(#SVGID_2_)" points="516.283,1073.25 -43.059,-6.52 -189.317,-6.52 
		-189.317,197.819 	"/>
	
		<radialGradient id="SVGID_3_" cx="462.9258" cy="876.0723" r="538.6066" gradientTransform="matrix(1 0 0 1.2767 0 -296.9369)" gradientUnits="userSpaceOnUse">
		<stop  offset="0" style="stop-color:#FFF200"/>
		<stop  offset="0.2578" style="stop-color:#FFEE00"/>
		<stop  offset="0.4012" style="stop-color:#FFE300"/>
		<stop  offset="0.5165" style="stop-color:#F9D600"/>
		<stop  offset="0.6169" style="stop-color:#F1C404"/>
		<stop  offset="0.7076" style="stop-color:#E7AD10"/>
		<stop  offset="0.7914" style="stop-color:#DB9316"/>
		<stop  offset="0.8698" style="stop-color:#CE7618"/>
		<stop  offset="0.9419" style="stop-color:#BF5717"/>
		<stop  offset="1" style="stop-color:#B23716"/>
	</radialGradient>
	<polygon opacity="0.4" clip-path="url(#XMLID_5_)" fill="url(#SVGID_3_)" points="516.283,1073.25 354.326,-204.671 
		221.013,-281.474 155.18,-95.221 	"/>
	
		<radialGradient id="SVGID_4_" cx="645.9131" cy="651.0854" r="385.0953" gradientTransform="matrix(1 0 0 1.2767 0 -296.9369)" gradientUnits="userSpaceOnUse">
		<stop  offset="0" style="stop-color:#FFF200"/>
		<stop  offset="0.2578" style="stop-color:#FFEE00"/>
		<stop  offset="0.4012" style="stop-color:#FFE300"/>
		<stop  offset="0.5165" style="stop-color:#F9D600"/>
		<stop  offset="0.6169" style="stop-color:#F1C404"/>
		<stop  offset="0.7076" style="stop-color:#E7AD10"/>
		<stop  offset="0.7914" style="stop-color:#DB9316"/>
		<stop  offset="0.8698" style="stop-color:#CE7618"/>
		<stop  offset="0.9419" style="stop-color:#BF5717"/>
		<stop  offset="1" style="stop-color:#B23716"/>
	</radialGradient>
	<polygon opacity="0.4" clip-path="url(#XMLID_5_)" fill="url(#SVGID_4_)" points="516.282,1073.25 678.239,-204.671 
		811.553,-281.474 877.387,-95.221 	"/>
	
		<radialGradient id="SVGID_5_" cx="747.9082" cy="936.0703" r="410.6206" gradientTransform="matrix(1 0 0 1.2767 0 -296.9369)" gradientUnits="userSpaceOnUse">
		<stop  offset="0" style="stop-color:#FFF200"/>
		<stop  offset="0.2578" style="stop-color:#FFEE00"/>
		<stop  offset="0.4012" style="stop-color:#FFE300"/>
		<stop  offset="0.5165" style="stop-color:#F9D600"/>
		<stop  offset="0.6169" style="stop-color:#F1C404"/>
		<stop  offset="0.7076" style="stop-color:#E7AD10"/>
		<stop  offset="0.7914" style="stop-color:#DB9316"/>
		<stop  offset="0.8698" style="stop-color:#CE7618"/>
		<stop  offset="0.9419" style="stop-color:#BF5717"/>
		<stop  offset="1" style="stop-color:#B23716"/>
	</radialGradient>
	<polygon opacity="0.4" clip-path="url(#XMLID_5_)" fill="url(#SVGID_5_)" points="516.283,1073.25 1404.673,449.175 
		1534.168,535.974 1459.768,716.892 	"/>
	
		<radialGradient id="SVGID_6_" cx="233.4341" cy="942.0703" r="361.5848" gradientTransform="matrix(1 0 0 1.2767 0 -296.9369)" gradientUnits="userSpaceOnUse">
		<stop  offset="0" style="stop-color:#FFF200"/>
		<stop  offset="0.2578" style="stop-color:#FFEE00"/>
		<stop  offset="0.4012" style="stop-color:#FFE300"/>
		<stop  offset="0.5165" style="stop-color:#F9D600"/>
		<stop  offset="0.6169" style="stop-color:#F1C404"/>
		<stop  offset="0.7076" style="stop-color:#E7AD10"/>
		<stop  offset="0.7914" style="stop-color:#DB9316"/>
		<stop  offset="0.8698" style="stop-color:#CE7618"/>
		<stop  offset="0.9419" style="stop-color:#BF5717"/>
		<stop  offset="1" style="stop-color:#B23716"/>
	</radialGradient>
	<polygon opacity="0.4" clip-path="url(#XMLID_5_)" fill="url(#SVGID_6_)" points="516.282,1073.25 -372.107,449.175 
		-501.603,535.974 -427.202,716.892 	"/>
</g>
<g opacity="0.7">
	
		<image overflow="visible" width="1775" height="1775" xlink:href="56987DC.png"  transform="matrix(0.24 0 0 0.24 285.6553 750.6113)">
	</image>
</g>
<linearGradient id="SVGID_7_" gradientUnits="userSpaceOnUse" x1="498.6318" y1="750.3857" x2="498.6318" y2="1101.0073">
	<stop  offset="0" style="stop-color:#FFF200"/>
	<stop  offset="1" style="stop-color:#B23716"/>
</linearGradient>
<circle fill="url(#SVGID_7_)" cx="498.632" cy="959.854" r="163.534"/>
<g>
	<defs>
		<path id="XMLID_1_" d="M-1.027,1032.836c0,0,6.357,9.665,22.189-6.332s28.786-29.327,64.768-17.329
			c35.982,11.998,97.152-9.332,117.302-25.662s126.608-58.93,276.583,5.332c59.113,25.329,95.554,6.321,147.128-16.33
			c28.833-12.665,138.389-27.185,224.688,22.995c64.769,37.66,81.679,32.661,109.025,28.995v69.731H-1.028L-1.027,1032.836z"/>
	</defs>
	<use xlink:href="#XMLID_1_"  overflow="visible" fill="#662020"/>
	<clipPath id="XMLID_6_">
		<use xlink:href="#XMLID_1_"  overflow="visible"/>
	</clipPath>
	<path clip-path="url(#XMLID_6_)" fill="#4E1717" d="M752.422,931.225c0,0-141.492,44.489,12.959,65.984
		c103.24,14.367,145.516,59.133,132.563,88.626c-12.953,29.492,60.447,30.991,75.56,18.994
		c15.111-11.997,51.812-129.967,51.812-129.967l-68.003-21.995L752.422,931.225z"/>
	<path clip-path="url(#XMLID_6_)" fill="#4E1717" d="M287.769,932.225c0,1.438-8.68,40.49,56.085,41.99
		c64.765,1.499,94.989,0.499,120.895,29.492c25.906,28.993,52.906,51.786,108.711,32.888c28.617-9.691,56.557-20.794,73.591-34.321
		c52.646-41.81,151.262-43.056,151.262-43.056s77.261-29.719-194.167-26.493c-3.403,0.04-116.685-0.5-116.685-0.5H287.769z"/>
	<path clip-path="url(#XMLID_6_)" fill="#4E1717" d="M68.067,994.71c0,0,82.036-64.484,112.259-51.488
		c30.223,12.997,88.512,11.282,36.7,58.485c-29.575,26.944-111.894,44.08-131.689,33.492
		c-45.909-24.558-87.444,63.984-86.365,67.984c1.079,3.998-119.803,9.447-123.041,9.946c-3.238,0.5,18.35-2.949,15.112-13.946
		s-28.065-59.985-22.667-64.984C-126.228,1029.201,68.067,994.71,68.067,994.71z"/>
	<path clip-path="url(#XMLID_6_)" fill="#381514" d="M511.685,1101.183c0,0,102.531-16.495,142.486-37.989
		c39.956-21.495,83.133-50.988,121.991-16.996c38.859,33.99,34.244,59.484,33.314,60.984
		C808.545,1108.682,511.685,1101.183,511.685,1101.183z"/>
	<path clip-path="url(#XMLID_6_)" fill="#381514" d="M194.358,1098.684c3.239,0,16.191,4.999,49.653-16.996
		c33.461-21.994,58.288-56.194,100.386-30.597c42.097,25.599,34.541,58.991,22.667,62.039
		C355.191,1116.18,194.358,1098.684,194.358,1098.684z"/>
</g>
</svg>
