<?xml version="1.0" encoding="utf-8"?>
<!-- Generator: Adobe Illustrator 16.0.0, SVG Export Plug-In . SVG Version: 6.00 Build 0)  -->
<!DOCTYPE svg PUBLIC "-//W3C//DTD SVG 1.1//EN" "http://www.w3.org/Graphics/SVG/1.1/DTD/svg11.dtd">
<svg version="1.1" id="Layer_1" xmlns="http://www.w3.org/2000/svg" xmlns:xlink="http://www.w3.org/1999/xlink" x="0px" y="0px"
	 width="841.89px" height="595.28px" viewBox="0 0 841.89 595.28" enable-background="new 0 0 841.89 595.28" xml:space="preserve">
<g>
	<defs>
		<polygon id="XMLID_16_" points="141.124,525.969 155.731,522.055 170.343,518.139 109.747,291.994 80.529,299.824 		"/>
	</defs>
	<use xlink:href="#XMLID_16_"  overflow="visible" fill="#01363A"/>
	<clipPath id="XMLID_4_">
		<use xlink:href="#XMLID_16_"  overflow="visible"/>
	</clipPath>
	<polygon clip-path="url(#XMLID_4_)" fill="#082123" points="95.893,306.333 170.343,544.333 182.91,531 125.436,291.343 	"/>
</g>
<g>
	<defs>
		<polygon id="XMLID_15_" points="681.374,518.14 695.977,522.052 710.591,525.968 771.186,299.823 741.969,291.995 		"/>
	</defs>
	<use xlink:href="#XMLID_15_"  overflow="visible" fill="#01363A"/>
	<clipPath id="XMLID_5_">
		<use xlink:href="#XMLID_15_"  overflow="visible"/>
	</clipPath>
	<polygon clip-path="url(#XMLID_5_)" fill="#082123" points="703.577,536.333 755.939,310.333 784.91,317.666 713.577,543.666 	"/>
</g>
<g>
	<defs>
		<path id="XMLID_14_" d="M810.569,313.679c0,0-155.657-116.186-379.657-116.186S41.145,313.679,41.145,313.679v35.734
			c0,0,168.768-116.186,390.768-116.186s378.657,116.186,378.657,116.186V313.679z"/>
	</defs>
	<use xlink:href="#XMLID_14_"  overflow="visible" fill="#6B3F23"/>
	<clipPath id="XMLID_6_">
		<use xlink:href="#XMLID_14_"  overflow="visible"/>
	</clipPath>
	<path clip-path="url(#XMLID_6_)" fill="#512C1D" d="M507.912,291.343c0,0,164-81.343,78-114.343s149.911-5.85,149.911-5.85
		L890.912,367l-418-48L507.912,291.343z"/>
</g>
<g>
	<defs>
		<polygon id="SVGID_1_" points="134.701,248.976 142.607,261.911 156.23,255.236 150.9,241.039 151.887,238.134 142.375,213.195 
			122.277,223.045 122.262,223.005 102.165,232.854 102.15,232.814 82.047,242.666 82.031,242.627 61.938,252.475 61.922,252.435 
			37.455,264.426 51.346,287.217 54.242,288.218 62.15,301.152 75.775,294.477 70.443,280.281 71.432,277.375 71.424,277.356 
			71.455,277.408 74.357,278.407 82.264,291.343 95.893,284.665 90.561,270.47 91.543,267.565 91.531,267.532 91.57,267.598 
			94.473,268.597 102.381,281.531 116.004,274.855 110.674,260.659 111.658,257.754 111.652,257.738 111.684,257.788 
			114.588,258.785 122.492,271.721 136.117,265.046 130.787,250.85 131.771,247.944 131.768,247.933 131.795,247.979 		"/>
	</defs>
	<use xlink:href="#SVGID_1_"  overflow="visible" fill="#AF2024"/>
	<clipPath id="SVGID_2_">
		<use xlink:href="#SVGID_1_"  overflow="visible"/>
	</clipPath>
	<path clip-path="url(#SVGID_2_)" fill="#77121A" d="M103.579,289c0,0,30.667-59.333-9-59.333s7.667-26,7.667-26l58-0.333
		c0,0,5.333,60,5.333,61S103.579,289,103.579,289z"/>
</g>
<g>
	<defs>
		<polygon id="SVGID_3_" points="796.146,254.606 796.168,254.569 776.031,244.794 776.053,244.759 755.918,234.985 
			755.939,234.949 735.802,225.174 735.823,225.138 711.313,213.24 701.901,238.216 702.902,241.118 697.578,255.313 
			711.23,261.942 719.13,248.999 722.027,247.986 722.052,247.945 722.021,248.029 723.014,250.928 717.696,265.126 
			731.345,271.752 739.245,258.81 742.139,257.796 742.166,257.75 742.133,257.839 743.133,260.74 737.807,274.934 751.459,281.563 
			759.357,268.619 762.252,267.605 762.275,267.566 762.245,267.647 763.24,270.548 757.919,284.743 771.569,291.371 
			779.475,278.431 782.363,277.415 782.394,277.365 782.358,277.458 783.356,280.358 778.031,294.553 791.684,301.181 
			799.588,288.24 802.484,287.229 816.28,264.38 		"/>
	</defs>
	<use xlink:href="#SVGID_3_"  overflow="visible" fill="#AF2024"/>
	<clipPath id="SVGID_4_">
		<use xlink:href="#SVGID_3_"  overflow="visible"/>
	</clipPath>
	<path clip-path="url(#SVGID_4_)" fill="#77121A" d="M711.912,283c0,0,95-25.785,68-59.893s55,34.103,55,34.103L816.28,316
		l-19.368,16L711.912,283z"/>
</g>
<g>
	<path fill="#FFF200" d="M321.203,178.078l-1.529-3.618c-13.181-31.05-50.83-49.747-80.105-59.963
		c-40.765-14.232-86.675-19.865-112.091-19.08c-0.878,0.027-1.767-0.266-1.991-0.66c-0.223-0.39,0.31-0.725,1.188-0.752
		c26.08-0.811,73.08,4.937,114.668,19.449c19.819,6.917,36.611,15.188,49.926,24.572c14.025,9.883,24.126,20.997,30.096,33.08
		c4.396-7.726,17.467-28.79,40.023-49.736c16.587-15.399,34.983-27.732,54.674-36.653c24.749-11.212,51.657-17.053,79.972-17.358
		c28.863-0.31,59.543,5.136,91.196,16.188c35.428,12.368,72.875,32.063,111.325,58.54c0.525,0.354,0.335,0.777-0.403,0.938
		c-0.745,0.167-1.768,0.009-2.286-0.35c-72.159-49.682-139.173-74.545-199.17-73.897c-27.547,0.295-53.802,6.018-78.061,17
		c-19.5,8.833-37.74,21.066-54.208,36.353c-28.081,26.07-41.402,52.326-41.54,52.59L321.203,178.078z"/>
</g>
<g>
	<g>
		<g>
			<path fill="#FFFFFF" d="M672.655,78.402c0,0,7.757,2.947,11.246,9.134c2.857,5.076,8.955,10.024,18.453,9.28
				c0,0-6.502-4.696-9.777-9.586C689.298,82.334,680.855,72.017,672.655,78.402z"/>
			<path fill="#FFFFFF" d="M656.166,124.196c0,0-12.367-2.872-19.256-5.333c0,0,0.482,4.353,8.551,9.259
				c6.298,3.83,12.238,3.287,17.483,4.717c5.379,1.463,7.814,3.843,11.517,5.746C674.461,138.585,673.833,128.378,656.166,124.196z"
				/>
			<g>
				
					<radialGradient id="SVGID_5_" cx="807.9814" cy="150.8916" r="51.3923" gradientTransform="matrix(0.9962 -0.0867 0.0867 0.9962 -125.9316 45.1167)" gradientUnits="userSpaceOnUse">
					<stop  offset="0" style="stop-color:#FFFFFF"/>
					<stop  offset="0.6236" style="stop-color:#FAED36"/>
					<stop  offset="0.9888" style="stop-color:#F99D1C"/>
				</radialGradient>
				<path fill="url(#SVGID_5_)" d="M696.818,95.461c-0.3-0.057-7.356-1.482-12.376-9.709c-2.889-4.741-7.955-7.13-7.997-7.154
					l-0.9-0.417l0.896-0.431c0.034-0.018,0.4-0.186,1.057-0.241c1.8-0.156,5.611,0.513,10.911,6.749
					c2.538,2.984,3.31,4.162,3.875,5.021c0.744,1.126,1.116,1.692,4.943,5.386l1.13,1.087L696.818,95.461z"/>
				<path fill="#131718" d="M677.541,77.978c1.599-0.14,5.279,0.43,10.509,6.583c5.931,6.982,2.142,3.958,8.856,10.443
					c0,0-7.099-1.35-12.066-9.498c-2.994-4.916-8.201-7.334-8.201-7.334S676.947,78.027,677.541,77.978 M677.457,77.048
					c-0.724,0.063-1.142,0.25-1.218,0.283l-1.791,0.855l1.798,0.834c0.051,0.022,4.99,2.37,7.8,6.972
					c5.119,8.407,12.38,9.868,12.686,9.927l3.068,0.585l-2.248-2.173c-3.79-3.658-4.152-4.211-4.876-5.31
					c-0.574-0.868-1.361-2.055-3.913-5.064C683.33,77.562,679.344,76.883,677.457,77.048L677.457,77.048z"/>
			</g>
			<g>
				
					<radialGradient id="SVGID_6_" cx="808.0459" cy="142.2393" r="47.9104" gradientTransform="matrix(0.9962 -0.0867 0.0867 0.9962 -125.9316 45.1167)" gradientUnits="userSpaceOnUse">
					<stop  offset="0" style="stop-color:#FFFFFF"/>
					<stop  offset="0.6236" style="stop-color:#FAED36"/>
					<stop  offset="0.9888" style="stop-color:#F99D1C"/>
				</radialGradient>
				<path fill="url(#SVGID_6_)" d="M670.068,134.473c-5.079-2.759-7.301-3.18-12.663-4.202c-0.935-0.178-1.964-0.372-3.123-0.602
					c-8.706-1.728-12.92-6.704-13.096-6.914l-0.906-1.094l1.383,0.344c0.061,0.014,6.65,1.646,14.839,3.806
					c11.196,2.951,14.075,7.814,14.195,8.021l0.807,1.421L670.068,134.473z"/>
				<path fill="#131718" d="M641.551,122.455c0,0,6.558,1.625,14.829,3.808c11.138,2.932,13.909,7.8,13.909,7.8
					c-6.032-3.274-8.084-3.298-15.914-4.852C645.73,127.5,641.551,122.455,641.551,122.455 M639.017,120.869l1.813,2.184
					c0.18,0.215,4.495,5.319,13.362,7.078c1.158,0.228,2.189,0.421,3.129,0.597c5.311,1.018,7.507,1.431,12.526,4.156l2.877,1.563
					l-1.62-2.844c-0.121-0.215-3.1-5.245-14.484-8.242c-8.188-2.158-14.785-3.796-14.847-3.81L639.017,120.869L639.017,120.869z"/>
			</g>
			<g>
				<path fill="#131718" d="M700.268,175.049c-1.229,0.108-2.453,0.161-3.614,0.153c-8.511-0.026-14.759-3.077-18.079-8.817
					l-2.07-3.575l3.666,1.903c0.228,0.121,0.432,0.235,0.634,0.348c0.526,0.297,0.922,0.518,1.57,0.632
					c-1.922-1.934-4.512-5.255-5.539-9.875c-1.546-6.946-5.587-12.915-9.396-13.877l-4.477-1.144l4.461-1.186
					c0.176-0.045,1.093-0.278,2.381-0.39c0.482-0.043,0.96-0.06,1.43-0.057c1.963,0.005,3.669,0.394,5.063,1.156
					c0.229,0.125,0.482,0.189,0.754,0.192c0.059,0,0.107-0.003,0.162-0.008c0.85-0.073,1.614-0.728,1.908-1.63
					c0.69-2.134-1.107-5.001-4.811-7.688c-0.098-0.067-0.573-0.423-0.573-0.423c-1.433-1.063-4.394-3.272-7.441-4.972
					c-1.392-0.778-2.726-1.138-4.568-1.624c-1.923-0.517-4.306-1.152-7.653-2.521c-12.517-5.127-15.603-14.333-15.633-14.424
					l-0.93-3.789l2.977,2.181l0.032,0.027c0.099,0.114,0.214,0.249,0.354,0.406c0.972,1.143,2.996,3.516,7.481,3.532
					c0.279-0.001,0.569-0.011,0.857-0.038c1.336-0.116,2.733-0.508,4.163-1.172c-3.573-9.744-21.969-15.042-22.154-15.1
					l-3.214-0.899l3.051-1.354c0.225-0.101,2.294-0.984,5.593-1.271c0.693-0.062,1.409-0.09,2.116-0.09
					c2.322,0.009,4.643,0.362,6.909,1.051c-1.224-2.872-2.683-7.665-3.47-15.225c-1.29-12.328-14.894-21.263-15.027-21.35
					l-5.961-3.835l6.896,1.652c0.187,0.047,18.853,4.809,26.4,23.765c4.262,10.697,8.527,16.128,12.677,16.139
					c0.157,0,0.303-0.005,0.441-0.016c0.726-0.064,1.354-0.277,1.82-0.459c0.663-0.255,1.068-0.753,1.17-1.44
					c0.232-1.501-1.013-3.548-3.257-5.353l-0.028-0.022l-4.001-4.154l5.29,2.147c0.742,0.373,17.287,8.87,22.363,20.69
					c2.657,6.195,6.174,7.95,8.638,8.336c-4.689-4.324-5.432-9.244-5.46-9.467l-0.364-2.538l2.184,1.346
					c4.655,2.859,8.063,3.314,11.668,3.795c3.788,0.503,7.703,1.02,13.007,4.346c5.435,3.408,8.49,6.586,10.182,8.875
					c1.81-7.478,6.241-9.751,6.436-9.846l4.037-2.105l-2.563,3.937l-0.021,0.022c-2.843,3.348,0.029,10.479,0.153,10.78l0.04,0.104
					c7.519,26.7-3.877,35.518-4.366,35.881l-24.656,16.449l-0.156,0.055C709.318,173.356,705.409,174.603,700.268,175.049z"/>
				<path fill="#FFFFFF" d="M623.783,51.393l4.216,1.009c0.189,0.046,18.587,4.665,26.083,23.486
					c4.337,10.886,8.746,16.419,13.111,16.435c0.162-0.001,0.327-0.007,0.484-0.021c0.769-0.066,1.43-0.291,1.942-0.489
					c0.809-0.316,1.335-0.956,1.464-1.806c0.266-1.686-1.021-3.852-3.424-5.787l-2.46-2.555l3.253,1.322
					c0.693,0.354,17.098,8.776,22.105,20.446c3.329,7.751,8.021,8.758,10.441,8.708c-5.5-4.388-6.337-9.842-6.373-10.09
					l-0.221-1.556l1.336,0.826c4.742,2.913,8.195,3.371,11.854,3.857c3.741,0.497,7.607,1.017,12.817,4.283
					c6.215,3.899,9.256,7.483,10.657,9.624c1.582-8.064,6.202-10.47,6.42-10.572l2.463-1.289l-1.576,2.423
					c-3.081,3.638,0.046,11.185,0.079,11.26l0.03,0.088c7.424,26.37-3.726,34.987-4.202,35.344l-24.586,16.402l-0.093,0.031
					c-0.205,0.065-4.184,1.36-9.375,1.811c-1.145,0.101-2.347,0.16-3.581,0.155c0,0,0,0,0-0.002
					c-8.329-0.028-14.438-2.996-17.672-8.585l-1.269-2.186l2.246,1.164c0.219,0.115,0.424,0.229,0.616,0.338
					c0.843,0.482,1.401,0.786,3.063,0.777c-1.951-1.731-5.174-5.268-6.344-10.522c-1.581-7.112-5.76-13.23-9.734-14.234
					l-2.742-0.699l2.733-0.729c0.051-0.016,0.975-0.258,2.295-0.37c0.427-0.04,0.898-0.061,1.39-0.059
					c1.892,0.005,3.519,0.375,4.843,1.096c0.297,0.167,0.623,0.252,0.975,0.249c0.068,0.003,0.136-0.002,0.204-0.009
					c1.025-0.089,1.957-0.863,2.314-1.948c0.759-2.335-1.107-5.4-4.984-8.208c-0.136-0.098-0.33-0.246-0.569-0.422
					c-1.431-1.066-4.412-3.288-7.491-5.005c-1.445-0.808-2.799-1.171-4.676-1.672c-1.901-0.508-4.276-1.139-7.593-2.498
					c-12.025-4.925-15.237-13.725-15.37-14.136l-0.612-2.511l1.902,1.4c0.876,0.919,2.884,4.059,8.178,4.077
					c0.299,0,0.601-0.009,0.902-0.036c1.51-0.133,3.083-0.6,4.698-1.396c-3.312-10.269-22.41-15.732-22.607-15.788l-1.966-0.555
					l1.867-0.828c0.104-0.048,2.161-0.945,5.444-1.23c0.647-0.058,1.342-0.088,2.074-0.084c2.633,0.008,5.24,0.459,7.774,1.354
					c-1.169-2.436-2.969-7.396-3.87-16.049c-1.317-12.588-15.1-21.603-15.241-21.694L623.783,51.393 M618.659,49.202l4.623,2.973
					l3.642,2.349c0.137,0.087,13.555,8.926,14.814,21.003c0.719,6.882,1.994,11.5,3.146,14.469c-2.01-0.529-4.063-0.797-6.119-0.805
					c-0.719-0.004-1.445,0.028-2.156,0.091c-3.368,0.294-5.506,1.201-5.739,1.302l-1.872,0.838l-2.364,1.051l2.493,0.7l1.969,0.548
					c0.179,0.054,17.845,5.136,21.682,14.403c-1.239,0.532-2.447,0.849-3.604,0.953c-0.275,0.025-0.547,0.032-0.816,0.036
					c-4.268-0.016-6.134-2.197-7.129-3.367c-0.143-0.167-0.263-0.311-0.376-0.422l-0.05-0.062l-0.072-0.051l-1.908-1.399
					l-2.063-1.512l0.608,2.487l0.61,2.512l0.008,0.028l0.009,0.037c0.036,0.095,3.189,9.506,15.905,14.711
					c3.374,1.381,5.775,2.02,7.701,2.539c1.818,0.478,3.124,0.833,4.47,1.582c3.021,1.685,5.966,3.878,7.379,4.935l0.203,0.155
					c0.157,0.11,0.288,0.208,0.387,0.28c3.477,2.52,5.255,5.261,4.639,7.163c-0.231,0.717-0.847,1.253-1.501,1.312
					c-0.042,0.002-0.082,0.002-0.12,0.002c-0.198-0.002-0.372-0.045-0.529-0.131c-1.466-0.801-3.247-1.21-5.294-1.22
					c-0.478,0-0.969,0.023-1.472,0.063c-1.316,0.119-2.268,0.353-2.446,0.4l-2.743,0.731l-3.461,0.928l3.479,0.881l2.741,0.692
					c3.59,0.914,7.567,6.855,9.05,13.534c0.807,3.615,2.548,6.461,4.204,8.483c-0.067-0.036-0.13-0.07-0.198-0.106l-2.245-1.165
					l-2.843-1.476l1.605,2.773l1.266,2.186c3.41,5.895,9.798,9.024,18.479,9.051h0.041l0.003,0.002c1.169,0,2.391-0.054,3.619-0.16
					c5.193-0.45,9.148-1.714,9.582-1.853l0.095-0.031l0.122-0.041l0.106-0.075l24.587-16.399l0.02-0.012l0.017-0.012
					c0.344-0.252,3.396-2.639,5.39-8.357c2.588-7.403,2.3-16.82-0.845-27.989l-0.01-0.039l-0.011-0.032l-0.032-0.087l-0.005-0.014
					l-0.009-0.014c-1.009-2.471-2.357-7.795-0.228-10.306l0.039-0.043l0.035-0.051l1.571-2.42l1.942-2.983l-3.155,1.647
					l-2.464,1.286c-0.182,0.087-4.431,2.265-6.425,9.221c-1.806-2.243-4.807-5.149-9.727-8.235
					c-5.384-3.378-9.351-3.905-13.187-4.413c-3.558-0.479-6.92-0.929-11.49-3.735l-1.336-0.822l-1.692-1.042l0.28,1.968l0.221,1.552
					c0.026,0.203,0.662,4.399,4.365,8.488c-2.115-0.841-4.629-2.896-6.647-7.604c-5.145-11.974-21.837-20.551-22.548-20.908
					l-0.032-0.018l-0.035-0.016l-3.257-1.322l-4.07-1.653l3.051,3.165l2.458,2.555l0.039,0.044l0.052,0.036
					c2.106,1.7,3.292,3.585,3.086,4.919c-0.082,0.52-0.378,0.881-0.88,1.079c-0.436,0.163-1.025,0.367-1.688,0.426
					c-0.135,0.011-0.267,0.014-0.398,0.016c-3.89-0.014-8.124-5.492-12.248-15.846c-3.968-9.965-10.97-15.956-16.15-19.225
					c-5.697-3.599-10.527-4.809-10.577-4.819l-4.221-1.015L618.659,49.202L618.659,49.202z"/>
			</g>
			<g>
				
					<radialGradient id="SVGID_7_" cx="860.5156" cy="131.6226" r="114.9631" gradientTransform="matrix(1 0.0033 -0.0033 1 -131.7178 32.5503)" gradientUnits="userSpaceOnUse">
					<stop  offset="0" style="stop-color:#FFFFFF"/>
					<stop  offset="0.6236" style="stop-color:#FAED36"/>
					<stop  offset="0.9888" style="stop-color:#F99D1C"/>
				</radialGradient>
				<path fill="url(#SVGID_7_)" stroke="#131718" stroke-width="2" stroke-miterlimit="10" d="M679.581,165.746
					c-0.031-0.033-0.068-0.062-0.1-0.096C679.481,165.65,679.514,165.688,679.581,165.746z"/>
				<g>
					
						<radialGradient id="SVGID_8_" cx="866.5098" cy="138.2988" r="123.7955" gradientTransform="matrix(1 0.0033 -0.0033 1 -131.7178 32.5503)" gradientUnits="userSpaceOnUse">
						<stop  offset="0" style="stop-color:#FFFFFF"/>
						<stop  offset="0.6236" style="stop-color:#FAED36"/>
						<stop  offset="0.9888" style="stop-color:#F99D1C"/>
					</radialGradient>
					<path fill="url(#SVGID_8_)" d="M737.738,121.156c0,0-3.377-7.993,0.043-12.022c0,0-5.288,2.646-6.347,12.194
						c0,0-1.817-5.235-11.444-11.28c-10.042-6.295-14.814-2.082-24.672-8.141c0,0,0.894,6.287,7.545,10.67
						c0,0-8.05,2.665-13.015-8.894c-4.96-11.558-21.763-20.075-21.763-20.075c4.919,3.957,4.397,7.831,1.767,8.853
						c-2.956,1.143-9.052,2.339-16.487-16.338c-7.443-18.686-25.573-23.044-25.573-23.044s14.204,9.156,15.575,22.239
						c1.363,13.084,4.813,17.584,4.813,17.584c-9.225-4.132-16.671-0.825-16.671-0.825s20.373,5.711,23.282,16.878
						c-10.018,5.353-15.251-3.003-15.251-3.003s3.114,9.69,14.958,14.541c6.505,2.663,9.27,2.486,12.354,4.209
						c3.647,2.035,7.188,4.797,8.127,5.473c9.789,7.086,4.062,13,0.702,11.163c-3.36-1.837-7.979-0.603-7.979-0.603
						c4.227,1.069,8.633,7.401,10.272,14.789c1.642,7.385,7.594,11.301,7.594,11.301c-3.993,0.405-4.443-0.275-5.987-1.08
						c7.813,13.514,29.757,6.289,29.757,6.289l24.472-16.324C733.81,155.71,745.115,147.339,737.738,121.156z"/>
					<path fill="#131718" d="M696.619,174.705c-0.004-0.001-0.004-0.001-0.004-0.001c-8.329-0.032-14.438-2.998-17.673-8.589
						l-1.267-2.19l2.244,1.166c0.221,0.116,0.422,0.233,0.616,0.339c0.845,0.477,1.402,0.789,3.064,0.779
						c-1.95-1.729-5.174-5.27-6.345-10.525c-1.58-7.111-5.768-13.228-9.734-14.233l-2.739-0.695l2.732-0.731
						c0.064-0.017,1.656-0.436,3.685-0.429c1.885,0.006,3.512,0.374,4.84,1.096c0.295,0.167,0.627,0.247,0.976,0.25
						c1.106,0.003,2.139-0.799,2.512-1.957c0.761-2.333-1.103-5.4-4.976-8.208c-0.142-0.102-0.333-0.242-0.574-0.425
						c-1.434-1.066-4.406-3.287-7.483-5.003c-1.452-0.813-2.807-1.177-4.68-1.673c-1.908-0.508-4.275-1.135-7.595-2.499
						c-12.025-4.921-15.239-13.726-15.371-14.136l-0.611-2.51l1.906,1.4c0.871,0.922,2.887,4.063,8.18,4.075
						c1.773,0.008,3.653-0.473,5.592-1.427c-3.311-10.272-22.409-15.734-22.603-15.791l-1.973-0.549l1.87-0.833
						c0.125-0.055,3.055-1.331,7.52-1.319c2.633,0.009,5.24,0.467,7.773,1.353c-1.166-2.432-2.966-7.389-3.871-16.046
						c-1.313-12.583-15.099-21.6-15.236-21.691l-3.642-2.349l4.214,1.014c0.186,0.043,18.586,4.661,26.081,23.482
						c4.334,10.89,8.746,16.42,13.11,16.435c0.983,0,1.813-0.269,2.426-0.507c0.813-0.312,1.333-0.958,1.469-1.807
						c0.258-1.685-1.021-3.848-3.431-5.788l-5.497-4.421l6.294,3.192c0.695,0.352,17.098,8.772,22.108,20.44
						c3.327,7.752,8.02,8.766,10.438,8.711c-5.503-4.39-6.334-9.844-6.371-10.093l-0.222-1.549l1.336,0.819
						c4.741,2.915,8.193,3.375,11.855,3.864c3.739,0.5,7.606,1.013,12.813,4.28c6.217,3.902,9.254,7.483,10.658,9.624
						c1.583-8.065,6.204-10.466,6.418-10.571l3.219-1.613l-2.332,2.746c-3.083,3.63,0.051,11.184,0.08,11.258l0.03,0.087
						c7.427,26.375-3.722,34.992-4.199,35.348l-24.59,16.402l-0.096,0.027C709.318,172.815,703.449,174.722,696.619,174.705z
						 M681.714,167.514c3.189,3.771,8.188,5.69,14.907,5.712l0,0c6.146,0.022,11.627-1.622,12.394-1.858l24.388-16.276
						c0.072-0.056,10.739-8.425,3.64-33.695c-0.231-0.566-2.132-5.336-1.338-9.418c-1.409,1.747-3.013,4.71-3.538,9.428
						l-0.359,3.241l-1.069-3.078c-0.016-0.049-1.906-5.1-11.142-10.896c-4.936-3.099-8.479-3.57-12.229-4.069
						c-3.259-0.438-6.623-0.884-10.873-3.169c0.718,2.072,2.521,5.724,6.778,8.526l1.272,0.835l-1.444,0.48
						c-0.041,0.009-0.948,0.307-2.323,0.302c-2.798-0.01-8.026-1.27-11.606-9.605c-3.333-7.764-12.286-14.209-17.5-17.449
						c0.718,1.26,1.019,2.513,0.835,3.67c-0.209,1.371-1.082,2.446-2.388,2.955c-0.678,0.266-1.724,0.609-2.964,0.605
						c-5.093-0.016-9.831-5.695-14.479-17.361c-4.945-12.426-14.829-18.421-20.595-20.971c4.404,3.757,11.078,10.838,12.019,19.817
						c1.315,12.647,4.633,17.173,4.666,17.215l1.72,2.29l-2.609-1.17c-2.954-1.329-6.036-2.004-9.15-2.013
						c-1.93-0.008-3.558,0.249-4.747,0.524c5.493,1.874,19.103,7.391,21.529,16.681l0.145,0.559l-0.511,0.274
						c-2.348,1.259-4.646,1.889-6.825,1.878c-2.531-0.006-4.549-0.846-6.058-1.847c2.045,3.138,5.874,7.46,12.52,10.182
						c3.232,1.322,5.553,1.937,7.416,2.435c1.9,0.509,3.405,0.914,5.016,1.812c3.162,1.761,6.191,4.022,7.648,5.107
						c0.231,0.18,0.425,0.315,0.557,0.414c6.375,4.614,5.98,8.43,5.511,9.86c-0.564,1.754-2.181,2.978-3.917,2.974c0,0,0,0,0-0.001
						c-0.597,0-1.163-0.147-1.678-0.428c-1.106-0.605-2.5-0.913-4.141-0.921c-0.324-0.003-0.639,0.009-0.932,0.025
						c3.676,2.386,7.02,7.892,8.437,14.272c1.561,7.01,7.22,10.81,7.28,10.846l1.729,1.143l-2.059,0.205
						C683.806,167.747,682.585,167.707,681.714,167.514z"/>
				</g>
			</g>
			
				<linearGradient id="SVGID_9_" gradientUnits="userSpaceOnUse" x1="831.5586" y1="122.6147" x2="800.4026" y2="108.3353" gradientTransform="matrix(1 0.0033 -0.0033 1 -131.7178 32.5503)">
				<stop  offset="0" style="stop-color:#FAF06F"/>
				<stop  offset="0.1296" style="stop-color:#FBE665"/>
				<stop  offset="0.3639" style="stop-color:#FCD04C"/>
				<stop  offset="0.5" style="stop-color:#FEC13C"/>
				<stop  offset="1" style="stop-color:#D81F27"/>
			</linearGradient>
			<path fill="url(#SVGID_9_)" d="M673.786,142.997c0,0,3.484,3.345,5.738,9.605c2.252,6.26,5.882,13.487,14.928,11.978
				c9.046-1.51,13.62-16.726,3.72-18.28C688.268,144.747,682.945,146.045,673.786,142.997z"/>
			
				<linearGradient id="SVGID_10_" gradientUnits="userSpaceOnUse" x1="863.3252" y1="107.6553" x2="823.7541" y2="55.4215" gradientTransform="matrix(1 0.0033 -0.0033 1 -131.7178 32.5503)">
				<stop  offset="0" style="stop-color:#FAF06F"/>
				<stop  offset="0.1296" style="stop-color:#FBE665"/>
				<stop  offset="0.3639" style="stop-color:#FCD04C"/>
				<stop  offset="0.5" style="stop-color:#FEC13C"/>
				<stop  offset="1" style="stop-color:#D81F27"/>
			</linearGradient>
			<path fill="url(#SVGID_10_)" d="M699.497,106.218c0,0,3.323,1.164,8.805,1.568c5.477,0.4,23.632,7.677,22.323,25.659
				c-1.313,17.977-24.439,3.301-22.098-8.245C710.88,113.66,702.887,111.037,699.497,106.218z"/>
			
				<linearGradient id="SVGID_11_" gradientUnits="userSpaceOnUse" x1="860.5244" y1="116.6143" x2="868.136" y2="68.242" gradientTransform="matrix(1 0.0033 -0.0033 1 -131.7178 32.5503)">
				<stop  offset="0" style="stop-color:#FAF06F"/>
				<stop  offset="0.1296" style="stop-color:#FBE665"/>
				<stop  offset="0.3639" style="stop-color:#FCD04C"/>
				<stop  offset="0.5" style="stop-color:#FEC13C"/>
				<stop  offset="1" style="stop-color:#D81F27"/>
			</linearGradient>
			<path fill="url(#SVGID_11_)" d="M734.725,115.313c0,0,1.229,4.832,2.753,11.111c1.514,6.279,4.159,21.867-7.606,30.19
				c-11.758,8.33-12.066-14.85-2.813-22.123C736.319,127.211,730.169,126.006,734.725,115.313z"/>
			
				<linearGradient id="SVGID_12_" gradientUnits="userSpaceOnUse" x1="821.8223" y1="111.4453" x2="774.943" y2="60.8935" gradientTransform="matrix(1 0.0033 -0.0033 1 -131.7178 32.5503)">
				<stop  offset="0" style="stop-color:#FAF06F"/>
				<stop  offset="0.1296" style="stop-color:#FBE665"/>
				<stop  offset="0.3639" style="stop-color:#FCD04C"/>
				<stop  offset="0.5" style="stop-color:#FEC13C"/>
				<stop  offset="1" style="stop-color:#D81F27"/>
			</linearGradient>
			<path fill="url(#SVGID_12_)" d="M644.91,111.516c0,0,4.509,2.71,16.832-0.712c12.32-3.422,12.754,10.623,19.558,17.953
				c6.807,7.334,6.214,12.045,6.214,12.045s-3.443-6.073-14.865-14.091c-11.414-8.022-8.688-3.877-17.283-7.368
				C646.772,115.855,644.91,111.516,644.91,111.516z"/>
			
				<linearGradient id="SVGID_13_" gradientUnits="userSpaceOnUse" x1="812.4775" y1="86.1372" x2="765.3964" y2="48.719" gradientTransform="matrix(1 0.0033 -0.0033 1 -131.7178 32.5503)">
				<stop  offset="0" style="stop-color:#FAF06F"/>
				<stop  offset="0.1296" style="stop-color:#FBE665"/>
				<stop  offset="0.3639" style="stop-color:#FCD04C"/>
				<stop  offset="0.5" style="stop-color:#FEC13C"/>
				<stop  offset="1" style="stop-color:#D81F27"/>
			</linearGradient>
			<path fill="url(#SVGID_13_)" d="M636.22,92.16c0,0,7.799-1.707,22.87,7.864c15.059,9.572,9.981,4.721,15.242,13.697
				c0,0-4.215-5.679-11.43-5.701C655.692,107.994,654.666,98.857,636.22,92.16z"/>
			
				<linearGradient id="SVGID_14_" gradientUnits="userSpaceOnUse" x1="846.582" y1="127.6641" x2="764.6299" y2="19.4873" gradientTransform="matrix(1 0.0033 -0.0033 1 -131.7178 32.5503)">
				<stop  offset="0" style="stop-color:#FAF06F"/>
				<stop  offset="0.1296" style="stop-color:#FBE665"/>
				<stop  offset="0.3639" style="stop-color:#FCD04C"/>
				<stop  offset="0.5" style="stop-color:#FEC13C"/>
				<stop  offset="1" style="stop-color:#D81F27"/>
			</linearGradient>
			<path fill="url(#SVGID_14_)" d="M638.442,60.141c0,0,6.818,3.867,12.069,15.232c5.253,11.367,7.53,19.934,16.472,20.155
				c6.552,0.166,13.644,4.566,16.114,13.806c0,0-6.313-7.372-12.96-6.965c-6.644,0.406-19.722-9.751-21.119-11.708
				C643.083,82.371,648.688,72.962,638.442,60.141z"/>
			
				<linearGradient id="SVGID_15_" gradientUnits="userSpaceOnUse" x1="839.6465" y1="94.168" x2="799.6813" y2="51.0718" gradientTransform="matrix(1 0.0033 -0.0033 1 -131.7178 32.5503)">
				<stop  offset="0" style="stop-color:#FAF06F"/>
				<stop  offset="0.1296" style="stop-color:#FBE665"/>
				<stop  offset="0.3639" style="stop-color:#FCD04C"/>
				<stop  offset="0.5" style="stop-color:#FEC13C"/>
				<stop  offset="1" style="stop-color:#D81F27"/>
			</linearGradient>
			<path fill="url(#SVGID_15_)" d="M673.263,88.462c0,0,10.771,7.512,14.388,15.12c3.617,7.607,5.823,9.315,12.735,11.617
				c6.922,2.298,6.6,12.549,6.6,12.549s-4.31-6.568-14.357-9.242C682.579,115.834,689.444,109.608,673.263,88.462z"/>
			<path fill="#FFFFFF" stroke="#131718" stroke-width="2" stroke-miterlimit="10" d="M689.844,149.202
				c0.046-13.863,11.322-25.065,25.184-25.018c13.869,0.043,25.067,11.321,25.021,25.184c-0.047,13.868-11.319,25.067-25.185,25.018
				C701.001,174.34,689.8,163.067,689.844,149.202z"/>
			<path fill="#131718" d="M700.786,174.489c0,0,4.818-0.2,8.621-4.224c0,0-5.579,2.614-12.67,2.817c0,0-2.409,0.157-5.251-0.312
				C688.651,172.302,698.695,174.664,700.786,174.489z"/>
			
				<radialGradient id="SVGID_16_" cx="853.7422" cy="133.5742" r="125.1038" gradientTransform="matrix(1 0.0033 -0.0033 1 -131.7178 32.5503)" gradientUnits="userSpaceOnUse">
				<stop  offset="0" style="stop-color:#FFFFFF"/>
				<stop  offset="0.6236" style="stop-color:#FAED36"/>
				<stop  offset="0.9888" style="stop-color:#F99D1C"/>
			</radialGradient>
			<path fill="url(#SVGID_16_)" d="M695.103,173.096c0,0,7.063,0.505,14.305-2.831c0,0-15.432,1.789-18.147,1.571L695.103,173.096z"
				/>
			
				<radialGradient id="SVGID_17_" cx="843.3652" cy="135.0762" r="24.6865" gradientTransform="matrix(1 0.0033 -0.0033 1 -131.7178 32.5503)" gradientUnits="userSpaceOnUse">
				<stop  offset="0" style="stop-color:#FFFFFF"/>
				<stop  offset="0.6236" style="stop-color:#FAED36"/>
				<stop  offset="0.9888" style="stop-color:#F99D1C"/>
			</radialGradient>
			<path fill="url(#SVGID_17_)" d="M690.934,167.976c4.475,3.495,18.474,2.29,18.474,2.29c-7.61,3.427-13.991,2.009-13.991,2.009
				s-6.986-0.721-10.57-3.334c0,0,3.664,0.12,5.783-0.974C690.629,167.966,690.796,167.869,690.934,167.976z"/>
		</g>
		<g>
			<g>
				<g>
					<g>
						<path fill="#D81F27" d="M707.518,133.435c-0.01,0-0.021,0-0.034,0c-0.842,2.202-1.57,4.419-2.182,6.658
							c-0.558-0.035-1.113-0.064-1.671-0.091c0.888-3.007,2.03-5.977,3.425-8.906c0.673-0.09,1.343-0.162,2.011-0.213
							c-0.209,1.781-0.271,3.644-0.224,5.562c0.015,0,0.021,0,0.032,0c0.549-1.895,1.157-3.785,1.823-5.66
							c0.468-0.019,0.938-0.027,1.404-0.031c-1,3.201-1.868,6.423-2.596,9.666c-0.635-0.062-1.267-0.116-1.897-0.168
							C707.419,137.89,707.364,135.604,707.518,133.435z"/>
						<path fill="#D81F27" d="M703.078,140.343l0.132-0.447c0.889-3.011,2.046-6.022,3.442-8.95l0.084-0.183l0.228-0.027
							c0.68-0.092,1.362-0.166,2.036-0.221l0.552-0.045l-0.056,0.468c-0.096,0.846-0.162,1.72-0.199,2.633
							c0.311-0.974,0.641-1.948,0.983-2.91l0.083-0.233l0.289-0.013c0.472-0.016,0.95-0.027,1.425-0.027h0.599l-0.15,0.48
							c-0.994,3.171-1.867,6.416-2.594,9.639l-0.07,0.315l-0.384-0.04c-0.629-0.061-1.256-0.114-1.887-0.165l-0.391-0.034
							l-0.028-0.328c-0.118-1.494-0.176-2.883-0.178-4.189c-0.466,1.37-0.894,2.75-1.27,4.124l-0.074,0.287l-0.354-0.022
							c-0.555-0.031-1.108-0.061-1.664-0.087L703.078,140.343z M707.374,131.428c-1.271,2.697-2.347,5.464-3.186,8.234
							c0.256,0.014,0.511,0.028,0.769,0.044c0.598-2.143,1.307-4.293,2.114-6.4l0.083-0.218l0.824-0.041l-0.028,0.429
							c-0.135,1.938-0.111,4.051,0.067,6.445c0.374,0.031,0.752,0.062,1.128,0.096c0.68-2.972,1.482-5.958,2.386-8.891
							c-0.165,0.003-0.332,0.006-0.498,0.012c-0.629,1.788-1.214,3.607-1.73,5.408l-0.081,0.282l-0.771-0.042l-0.039-0.357
							c-0.05-1.86,0.008-3.545,0.169-5.135C708.18,131.331,707.777,131.377,707.374,131.428z"/>
					</g>
					<g>
						<path fill="#D81F27" d="M715.587,135.216c0.775,0.104,1.548,0.216,2.317,0.351c-0.067,0.479-0.138,0.961-0.208,1.44
							c-0.786-0.133-1.579-0.254-2.375-0.357c-0.174,0.977-0.352,1.958-0.526,2.936c1.041,0.145,2.075,0.305,3.11,0.484
							c-0.065,0.483-0.136,0.962-0.204,1.441c-1.653-0.281-3.317-0.524-4.985-0.737c0.636-3.316,1.343-6.626,2.12-9.925
							c1.416,0.106,2.817,0.292,4.206,0.563c-0.059,0.482-0.118,0.963-0.182,1.444c-0.911-0.174-1.825-0.317-2.747-0.425
							C715.934,133.358,715.761,134.287,715.587,135.216z"/>
						<path fill="#D81F27" d="M712.211,141.08l0.072-0.383c0.64-3.317,1.353-6.66,2.126-9.937l0.07-0.3l0.373,0.025
							c1.43,0.106,2.861,0.295,4.264,0.568l0.398,0.078l-0.268,2.166l-0.457-0.087c-0.765-0.144-1.536-0.269-2.313-0.368
							c-0.13,0.691-0.261,1.383-0.387,2.076c0.627,0.084,1.252,0.18,1.878,0.288l0.42,0.072l-0.311,2.164l-0.441-0.073
							c-0.646-0.112-1.296-0.21-1.941-0.301c-0.137,0.739-0.271,1.482-0.4,2.221c0.891,0.129,1.784,0.27,2.677,0.425l0.415,0.07
							l-0.304,2.161l-0.443-0.071c-1.641-0.281-3.307-0.528-4.963-0.736L712.211,141.08z M715.192,131.246
							c-0.715,3.045-1.377,6.146-1.976,9.227c1.374,0.18,2.748,0.381,4.105,0.606l0.104-0.721c-0.892-0.146-1.784-0.286-2.674-0.411
							l-0.448-0.062l0.063-0.37c0.171-0.982,0.348-1.963,0.529-2.938l0.062-0.343l0.411,0.054c0.65,0.087,1.3,0.181,1.947,0.29
							l0.104-0.725c-0.622-0.1-1.248-0.191-1.876-0.273l-0.456-0.059l0.069-0.377c0.171-0.932,0.347-1.863,0.524-2.792l0.063-0.335
							l0.403,0.05c0.778,0.093,1.56,0.211,2.328,0.346l0.088-0.723C717.457,131.49,716.323,131.341,715.192,131.246z"/>
					</g>
					<g>
						<path fill="#D81F27" d="M724.939,137.692c-0.014-0.003-0.021-0.008-0.032-0.008c-0.218,1.699-0.507,3.396-0.854,5.095
							c-0.825-0.187-1.654-0.369-2.482-0.537c-0.085-3.422-0.237-6.877-0.371-10.348c0.492,0.127,0.98,0.265,1.466,0.411
							c0.197,2.733,0.375,5.449,0.502,8.139c0.011,0,0.021,0.005,0.031,0.008c0.461-2.551,0.802-5.099,0.991-7.65
							c0.482,0.17,0.96,0.347,1.436,0.536c0.396,2.716,0.724,5.403,0.956,8.048c0.013,0.005,0.022,0.005,0.033,0.008
							c0.352-2.476,0.534-4.953,0.512-7.424c0.43,0.192,0.857,0.39,1.28,0.598c0.125,3.029-0.121,6.071-0.651,9.127
							c-0.794-0.21-1.592-0.412-2.39-0.606C725.26,141.307,725.116,139.507,724.939,137.692z"/>
						<path fill="#D81F27" d="M728.115,144.167l-0.469-0.124c-0.791-0.206-1.589-0.408-2.383-0.601l-0.316-0.075l-0.018-0.278
							c-0.033-0.625-0.079-1.253-0.125-1.898c-0.101,0.553-0.209,1.113-0.326,1.672l-0.073,0.375l-0.444-0.103
							c-0.815-0.188-1.649-0.368-2.474-0.538l-0.345-0.073l-0.01-0.294c-0.069-2.781-0.182-5.638-0.291-8.401l-0.098-2.425
							l0.562,0.143c0.482,0.124,0.984,0.265,1.488,0.416l0.285,0.089l0.021,0.254c0.085,1.208,0.184,2.624,0.278,4.131
							c0.159-1.251,0.29-2.48,0.379-3.675l0.036-0.487l0.544,0.19c0.485,0.172,0.973,0.353,1.454,0.544l0.231,0.092l0.031,0.214
							c0.207,1.41,0.386,2.748,0.54,4.036c0.077-1.156,0.109-2.289,0.097-3.398l-0.001-0.581l0.625,0.277
							c0.434,0.193,0.865,0.396,1.294,0.604l0.226,0.109l0.006,0.212c0.123,2.917-0.1,6.01-0.657,9.193L728.115,144.167z
							 M725.783,142.814c0.533,0.134,1.074,0.271,1.608,0.41c0.491-2.957,0.687-5.729,0.592-8.451
							c-0.142-0.064-0.281-0.131-0.42-0.197c-0.012,2.217-0.184,4.53-0.519,6.883l-0.059,0.422l-0.784-0.222l-0.052-0.267
							c-0.215-2.408-0.517-4.966-0.927-7.815c-0.214-0.082-0.426-0.16-0.638-0.242c-0.191,2.303-0.511,4.72-0.955,7.19l-0.073,0.397
							l-0.78-0.201l-0.043-0.284c-0.135-2.826-0.327-5.664-0.485-7.873c-0.2-0.059-0.399-0.117-0.595-0.168l0.055,1.446
							c0.108,2.666,0.216,5.422,0.285,8.114c0.568,0.121,1.139,0.244,1.705,0.37c0.32-1.607,0.581-3.188,0.775-4.702l0.06-0.437
							l0.785,0.235l0.052,0.26C725.549,139.509,725.684,141.193,725.783,142.814z"/>
					</g>
					<g>
						<path fill="#D81F27" d="M704.025,149.951c0.011,0.004,0.025,0.008,0.039,0.008c0.834-2.591,1.84-5.206,2.945-7.841
							c1.031,0.099,2.063,0.213,3.091,0.334c-0.781,3.891-1.396,7.811-1.853,11.754c-0.693-0.137-1.383-0.276-2.075-0.418
							c0.278-2.793,0.669-5.563,1.175-8.32c-0.011-0.001-0.029-0.003-0.04-0.005c-1.012,2.688-1.914,5.355-2.646,8.003
							c-0.692-0.148-1.378-0.303-2.068-0.462c-0.343-2.781-0.561-5.49-0.594-8.104c-0.015,0-0.026-0.002-0.04-0.003
							c-0.515,2.545-0.848,5.118-0.993,7.722c-0.632-0.152-1.266-0.308-1.897-0.47c0.133-3.576,0.69-7.084,1.673-10.525
							c1.035,0.06,2.073,0.133,3.107,0.212C703.734,144.456,703.816,147.17,704.025,149.951z"/>
						<path fill="#D81F27" d="M708.634,154.651l-0.46-0.091c-0.695-0.133-1.391-0.271-2.082-0.416l-0.384-0.08l0.033-0.327
							c0.127-1.271,0.277-2.55,0.452-3.826c-0.416,1.271-0.784,2.482-1.108,3.657l-0.095,0.344l-0.417-0.09
							c-0.691-0.152-1.383-0.305-2.073-0.467l-0.308-0.07l-0.033-0.263c-0.18-1.457-0.317-2.83-0.415-4.134
							c-0.158,1.254-0.271,2.512-0.343,3.768l-0.021,0.437l-0.511-0.122c-0.636-0.153-1.272-0.312-1.908-0.474l-0.342-0.087
							l0.01-0.294c0.137-3.585,0.704-7.148,1.687-10.599l0.08-0.281l0.351,0.021c1.035,0.063,2.086,0.134,3.118,0.214l0.434,0.035
							l-0.014,0.365c-0.082,1.85-0.07,3.816,0.04,5.961c0.64-1.817,1.395-3.751,2.274-5.854l0.105-0.259l0.333,0.032
							c1.04,0.104,2.08,0.217,3.1,0.339l0.47,0.055l-0.076,0.388c-0.779,3.868-1.401,7.814-1.851,11.728L708.634,154.651z
							 M706.642,153.512c0.405,0.083,0.812,0.164,1.217,0.245c0.432-3.669,1.017-7.367,1.735-10.998
							c-0.751-0.088-1.517-0.171-2.28-0.248c-1.159,2.779-2.082,5.254-2.827,7.562l-0.102,0.316l-0.733-0.135l-0.062-0.299
							c-0.213-2.868-0.274-5.419-0.189-7.788c-0.769-0.058-1.546-0.113-2.314-0.157c-0.899,3.217-1.423,6.538-1.57,9.875
							c0.346,0.087,0.696,0.174,1.044,0.257c0.158-2.457,0.48-4.922,0.968-7.328l0.068-0.333l0.793,0.105l0.042,0.332
							c0.032,2.358,0.215,4.914,0.565,7.803c0.445,0.102,0.891,0.203,1.336,0.301c0.665-2.36,1.504-4.879,2.561-7.687l0.105-0.281
							l0.808,0.105l-0.025,0.383C707.298,148.167,706.916,150.846,706.642,153.512z"/>
					</g>
					<g>
						<path fill="#D81F27" d="M719.268,155.951c-0.748-0.09-1.492-0.189-2.238-0.292c0.003-0.733-0.002-1.469-0.008-2.209
							c-0.918-0.133-1.831-0.274-2.745-0.416c-0.245,0.703-0.485,1.406-0.725,2.11c-0.675-0.107-1.351-0.22-2.022-0.335
							c1.301-3.858,2.74-7.724,4.121-11.595c1.075,0.167,2.151,0.342,3.223,0.534C719.085,147.861,719.277,151.952,719.268,155.951z
							 M714.814,151.452c0.723,0.114,1.441,0.224,2.168,0.334c-0.029-2.064-0.077-4.135-0.124-6.21
							c-0.016-0.002-0.026-0.002-0.041-0.008C716.162,147.529,715.486,149.492,714.814,151.452z"/>
						<path fill="#D81F27" d="M713.871,155.562l-0.375-0.059c-0.677-0.109-1.354-0.221-2.033-0.337l-0.485-0.083l0.131-0.394
							c0.898-2.666,1.881-5.375,2.831-8c0.434-1.199,0.865-2.398,1.295-3.6l0.105-0.295l0.621,0.096
							c0.992,0.157,1.996,0.325,2.98,0.498l0.353,0.06l0.017,0.301c0.212,4.179,0.4,8.261,0.393,12.224v0.402l-0.475-0.062
							c-0.751-0.09-1.498-0.191-2.246-0.29l-0.389-0.055l0.002-0.327c0-0.628-0.002-1.257-0.012-1.888
							c-0.661-0.096-1.33-0.199-1.996-0.301c-0.204,0.602-0.41,1.207-0.617,1.809L713.871,155.562z M712.08,154.531
							c0.385,0.065,0.768,0.128,1.155,0.193c0.207-0.606,0.412-1.208,0.619-1.811l0.103-0.3l0.522,0.083
							c0.863,0.135,1.729,0.264,2.59,0.393l0.379,0.056l0.007,0.321c0.006,0.629,0.009,1.256,0.012,1.885
							c0.455,0.061,0.911,0.121,1.366,0.179c-0.005-3.731-0.179-7.563-0.378-11.489c-0.823-0.141-1.66-0.28-2.491-0.411
							c-0.394,1.102-0.792,2.205-1.191,3.306C713.871,149.428,712.94,152.001,712.08,154.531z M714.259,151.735l0.521-1.52
							c0.544-1.589,1.089-3.175,1.62-4.764l0.1-0.3l0.787,0.125l0.013,0.65c0.047,1.963,0.091,3.925,0.117,5.876l0.006,0.418
							l-0.498-0.073c-0.719-0.111-1.44-0.221-2.166-0.335L714.259,151.735z M716.475,147.938c-0.284,0.836-0.57,1.678-0.86,2.517
							l-0.242,0.715c0.389,0.062,0.777,0.12,1.17,0.179C716.523,150.214,716.501,149.076,716.475,147.938z"/>
					</g>
					<g>
						<path fill="#D81F27" d="M724.377,144.822c1.151,0.242,2.301,0.503,3.45,0.777c2.164,0.529,3.232,1.751,3.083,3.434
							c-0.164,1.781-0.434,3.551-0.817,5.299c-0.375,1.645-1.756,2.479-3.979,2.315c-1.177-0.094-2.356-0.202-3.53-0.322
							C723.423,152.529,724.02,148.693,724.377,144.822z M726.42,146.926c-0.26,2.699-0.674,5.376-1.247,8.025
							c0.423,0.047,0.846,0.093,1.269,0.136c0.713,0.073,1.213-0.162,1.373-0.931c0.394-1.87,0.689-3.757,0.881-5.657
							c0.077-0.781-0.327-1.162-1.025-1.311C727.254,147.098,726.837,147.012,726.42,146.926z"/>
						<path fill="#D81F27" d="M722.068,156.64l0.088-0.397c0.832-3.767,1.433-7.626,1.788-11.473l0.038-0.407l0.479,0.104
							c1.153,0.245,2.318,0.511,3.465,0.781c2.369,0.581,3.583,1.944,3.418,3.831c-0.161,1.792-0.442,3.587-0.824,5.34
							c-0.422,1.854-1.988,2.776-4.422,2.596c-1.18-0.094-2.371-0.206-3.541-0.322L722.068,156.64z M724.771,145.279
							c-0.349,3.594-0.908,7.201-1.671,10.732c1.005,0.101,2.025,0.192,3.031,0.273c1.974,0.147,3.196-0.561,3.533-2.04
							c0.376-1.725,0.652-3.495,0.813-5.261c0.133-1.51-0.818-2.561-2.749-3.036C726.751,145.718,725.758,145.491,724.771,145.279z
							 M724.661,155.262l0.084-0.395c0.564-2.625,0.982-5.313,1.242-7.992l0.041-0.404l0.475,0.101
							c0.419,0.086,0.832,0.174,1.25,0.264c0.689,0.148,1.489,0.563,1.376,1.713c-0.195,1.906-0.491,3.819-0.886,5.691
							c-0.236,1.13-1.127,1.285-1.83,1.212c-0.426-0.045-0.846-0.089-1.273-0.137L724.661,155.262z M726.814,147.38
							c-0.25,2.432-0.63,4.869-1.127,7.262c0.261,0.028,0.521,0.053,0.785,0.083c0.468,0.046,0.788-0.045,0.913-0.653
							c0.389-1.849,0.684-3.742,0.876-5.625c0.06-0.619-0.213-0.806-0.679-0.907C727.328,147.49,727.07,147.433,726.814,147.38z"/>
					</g>
					<g>
						<path fill="#D81F27" d="M698.033,153.611c1.753,0.512,2.623,1.597,2.65,3.108c0,0.098,0.001,0.196,0.004,0.294
							c-0.545-0.175-1.089-0.361-1.631-0.548c-0.008-0.125-0.017-0.25-0.021-0.378c-0.029-0.653-0.354-1.001-0.916-1.182
							c-0.557-0.184-0.87-0.057-0.815,0.577c0.055,0.647,0.457,1.256,1.632,2.504c1.498,1.607,1.971,2.562,2.086,3.65
							c0.16,1.523-0.438,2.061-1.852,1.256c-1.401-0.817-2.404-2.115-2.775-3.499c-0.043-0.177-0.09-0.356-0.134-0.534
							c0.494,0.26,0.985,0.508,1.483,0.748c0.04,0.213,0.084,0.429,0.13,0.646c0.136,0.641,0.493,1.041,0.969,1.289
							c0.481,0.25,0.736,0.156,0.635-0.507c-0.105-0.676-0.482-1.326-1.665-2.604c-1.519-1.637-2.104-2.53-2.224-3.504
							C695.42,153.57,696.289,153.095,698.033,153.611z"/>
						<path fill="#D81F27" d="M700.02,163.612c-0.324-0.053-0.677-0.189-1.082-0.422c-1.48-0.861-2.559-2.221-2.967-3.731
							c-0.047-0.187-0.091-0.366-0.136-0.545l-0.188-0.797l0.831,0.435c0.488,0.257,0.979,0.503,1.466,0.743l0.176,0.085
							c-0.179-0.215-0.393-0.458-0.645-0.731c-1.61-1.736-2.189-2.667-2.317-3.707c-0.09-0.712,0.079-1.24,0.501-1.564
							c0.524-0.406,1.368-0.445,2.498-0.112c1.909,0.557,2.932,1.758,2.961,3.47l0.021,0.81l-0.588-0.19
							c-0.547-0.177-1.096-0.359-1.641-0.547l-0.276-0.099l-0.032-0.627c-0.027-0.537-0.266-0.722-0.618-0.836
							c-0.1-0.033-0.206-0.053-0.24-0.05c0.006,0.014-0.021,0.093-0.003,0.282c0.045,0.553,0.418,1.107,1.527,2.29
							c1.461,1.563,2.051,2.609,2.188,3.856c0.094,0.896-0.057,1.479-0.461,1.786C700.818,163.545,700.507,163.686,700.02,163.612z
							 M696.901,159.605c0.405,1.213,1.305,2.293,2.503,2.989c0.359,0.208,0.593,0.276,0.724,0.297
							c0.181,0.027,0.24-0.018,0.265-0.038c0.07-0.051,0.291-0.296,0.199-1.203c-0.104-0.942-0.465-1.81-1.994-3.448
							c-1.245-1.325-1.664-1.981-1.727-2.712c-0.034-0.409,0.061-0.695,0.292-0.868c0.168-0.125,0.526-0.244,1.095-0.058
							c0.768,0.252,1.176,0.767,1.213,1.53l0.005,0.13c0.253,0.088,0.507,0.172,0.757,0.255c-0.099-1.256-0.88-2.102-2.323-2.524
							c-0.792-0.235-1.365-0.242-1.646-0.026c-0.273,0.213-0.284,0.649-0.242,0.98c0.109,0.875,0.645,1.706,2.13,3.309
							c1.175,1.268,1.633,2,1.757,2.789c0.043,0.276,0.07,0.667-0.208,0.889c-0.149,0.118-0.362,0.164-0.588,0.13
							c-0.146-0.025-0.302-0.082-0.482-0.175c-0.636-0.335-1.037-0.857-1.188-1.554c-0.03-0.156-0.062-0.312-0.091-0.468
							C697.2,159.757,697.051,159.681,696.901,159.605z M698.141,159.407l0.034,0.167c0.04,0.21,0.081,0.421,0.125,0.633
							c0.104,0.478,0.351,0.813,0.759,1.029c0.003,0.002,0.003,0.002,0.003,0.002c0-0.045-0.007-0.103-0.018-0.174
							C698.979,160.637,698.793,160.196,698.141,159.407z"/>
					</g>
					<g>
						<path fill="#D81F27" d="M703.044,155.104c1.857,0.472,3.719,0.898,5.593,1.275c-0.054,0.478-0.102,0.953-0.146,1.432
							c-0.624-0.13-1.244-0.27-1.864-0.414c-0.216,2.839-0.324,5.693-0.327,8.564c-0.499-0.166-1-0.343-1.499-0.526
							c-0.113-2.846-0.099-5.667,0.045-8.468c-0.617-0.157-1.233-0.32-1.849-0.49C703.007,156.016,703.024,155.56,703.044,155.104z"
							/>
						<path fill="#D81F27" d="M706.734,166.491l-0.575-0.192c-0.504-0.164-1.013-0.346-1.517-0.533l-0.266-0.102l-0.009-0.239
							c-0.114-2.738-0.106-5.493,0.029-8.196c-0.503-0.13-1.011-0.266-1.518-0.402l-0.329-0.09l0.007-0.29
							c0.017-0.458,0.03-0.918,0.052-1.377l0.022-0.446l0.516,0.129c1.831,0.466,3.703,0.893,5.567,1.27l0.388,0.08l-0.033,0.329
							c-0.05,0.476-0.102,0.951-0.146,1.428l-0.039,0.407l-0.478-0.101c-0.46-0.099-0.918-0.199-1.38-0.303
							c-0.191,2.677-0.291,5.407-0.293,8.12V166.491z M705.229,165.199c0.212,0.077,0.424,0.152,0.638,0.225
							c0.014-2.697,0.126-5.41,0.325-8.07l0.029-0.426l0.497,0.116c0.459,0.105,0.917,0.208,1.376,0.309
							c0.027-0.234,0.047-0.466,0.075-0.697c-1.575-0.327-3.156-0.684-4.709-1.07c-0.009,0.21-0.017,0.421-0.021,0.634
							c0.504,0.135,1.007,0.267,1.511,0.396l0.347,0.086L705.283,157C705.139,159.702,705.123,162.458,705.229,165.199z"/>
					</g>
					<g>
						<path fill="#D81F27" d="M712.015,163.923c-0.375-2.368-0.832-4.758-1.313-7.145c0.634,0.117,1.269,0.227,1.904,0.333
							c0.236,1.609,0.454,3.216,0.643,4.81c0.012,0.004,0.022,0.003,0.03,0.008c0.683-1.467,1.397-2.928,2.123-4.387
							c0.582,0.083,1.168,0.161,1.752,0.233c-1.199,2.123-2.382,4.257-3.479,6.4c-0.197,1.109-0.399,2.218-0.598,3.327
							c-0.518-0.068-1.03-0.145-1.543-0.233C711.691,166.155,711.852,165.036,712.015,163.923z"/>
						<path fill="#D81F27" d="M712.051,167.725c-0.194-0.031-0.387-0.063-0.583-0.096l-0.415-0.073l0.051-0.349
							c0.155-1.101,0.312-2.202,0.469-3.301c-0.404-2.577-0.907-5.139-1.301-7.086l-0.1-0.509l0.601,0.108
							c0.631,0.118,1.263,0.23,1.896,0.334l0.331,0.056l0.04,0.279c0.178,1.214,0.331,2.327,0.466,3.359
							c0.443-0.937,0.935-1.936,1.493-3.061l0.125-0.25l0.328,0.044c0.58,0.082,1.161,0.16,1.74,0.233l0.615,0.077l-0.261,0.458
							c-0.979,1.74-2.259,4.028-3.45,6.348c-0.195,1.094-0.392,2.19-0.591,3.282l-0.063,0.339l-0.409-0.052
							C712.703,167.823,712.377,167.775,712.051,167.725z M712.015,166.982c0.23,0.036,0.464,0.07,0.69,0.104
							c0.183-0.996,0.361-1.988,0.537-2.985l0.032-0.082c1.101-2.15,2.274-4.271,3.226-5.958c-0.272-0.036-0.548-0.072-0.821-0.112
							c-0.771,1.563-1.41,2.878-1.991,4.129l-0.12,0.258l-0.686-0.097l-0.063-0.298c-0.16-1.357-0.358-2.838-0.6-4.525
							c-0.33-0.054-0.657-0.112-0.988-0.169c0.379,1.89,0.837,4.262,1.215,6.648v0.094
							C712.303,164.986,712.155,165.984,712.015,166.982z"/>
					</g>
					<g>
						<path fill="#D81F27" d="M719.779,158.076c0.615,0.062,1.229,0.123,1.847,0.174c-0.65,2.749-1.423,5.477-2.313,8.188
							c0.899-0.007,1.797-0.042,2.706-0.105c-0.174,0.434-0.353,0.865-0.536,1.293c-1.414,0.136-2.814,0.193-4.203,0.174
							C718.234,164.578,719.07,161.336,719.779,158.076z"/>
						<path fill="#D81F27" d="M716.717,168.158l0.137-0.462c0.954-3.202,1.794-6.467,2.499-9.703l0.069-0.32l0.387,0.042
							c0.613,0.06,1.226,0.119,1.837,0.172l0.506,0.044l-0.099,0.413c-0.613,2.577-1.34,5.173-2.161,7.717
							c0.684-0.014,1.378-0.047,2.068-0.092l0.694-0.047l-0.221,0.547c-0.178,0.434-0.355,0.866-0.541,1.3l-0.084,0.199
							l-0.255,0.022c-1.424,0.138-2.859,0.198-4.26,0.178L716.717,168.158z M720.137,158.48c-0.657,2.989-1.433,6-2.297,8.962
							c1.097-0.005,2.207-0.058,3.317-0.154c0.075-0.18,0.152-0.366,0.227-0.549c-0.686,0.037-1.373,0.059-2.044,0.065l-0.607,0.004
							l0.16-0.488c0.838-2.553,1.58-5.159,2.209-7.75C720.781,158.542,720.457,158.512,720.137,158.48z"/>
					</g>
					<g>
						<path fill="#D81F27" d="M727.889,162.234c0.82-0.047,1.644-0.11,2.468-0.186c-0.186,0.376-0.384,0.75-0.584,1.124
							c-0.812,0.103-1.62,0.189-2.425,0.261c-0.382,0.816-0.791,1.628-1.231,2.437c0.968-0.15,1.938-0.333,2.913-0.547
							c-0.238,0.362-0.485,0.723-0.738,1.083c-1.497,0.392-2.981,0.701-4.454,0.927c1.463-2.864,2.647-5.772,3.557-8.723
							c1.692,0.064,3.393,0.092,5.095,0.083c-0.144,0.376-0.296,0.749-0.459,1.12c-1.069,0.041-2.135,0.062-3.2,0.067
							C728.544,160.669,728.227,161.454,727.889,162.234z"/>
						<path fill="#D81F27" d="M723.107,167.82l0.329-0.646c1.446-2.837,2.638-5.753,3.535-8.675l0.083-0.267l0.337,0.015
							c1.683,0.06,3.388,0.088,5.07,0.079l0.641-0.001l-0.196,0.501c-0.148,0.378-0.305,0.757-0.465,1.135l-0.094,0.212
							l-0.275,0.011c-0.961,0.034-1.938,0.055-2.913,0.064c-0.198,0.526-0.405,1.053-0.626,1.579
							c0.58-0.041,1.165-0.089,1.754-0.142l0.769-0.072l-0.295,0.595c-0.19,0.378-0.387,0.755-0.593,1.133l-0.09,0.167l-0.22,0.028
							c-0.729,0.091-1.467,0.173-2.193,0.241c-0.253,0.532-0.518,1.065-0.793,1.591c0.673-0.116,1.352-0.249,2.027-0.397
							l1.021-0.223l-0.508,0.771c-0.24,0.363-0.488,0.727-0.745,1.089l-0.078,0.11l-0.149,0.041
							c-1.504,0.394-3.02,0.708-4.501,0.936L723.107,167.82z M727.731,158.987c-0.827,2.639-1.89,5.276-3.16,7.848
							c1.132-0.199,2.278-0.446,3.422-0.741c0.046-0.066,0.094-0.135,0.139-0.202c-0.642,0.127-1.277,0.239-1.909,0.337
							l-0.857,0.135l0.356-0.662c0.429-0.796,0.84-1.612,1.221-2.42l0.089-0.194l0.247-0.022c0.725-0.063,1.458-0.139,2.184-0.231
							c0.065-0.118,0.128-0.239,0.19-0.356c-0.576,0.047-1.145,0.087-1.71,0.12l-0.704,0.041l0.242-0.547
							c0.334-0.773,0.649-1.56,0.936-2.336l0.09-0.239l0.302-0.001c0.971-0.007,1.943-0.025,2.904-0.056
							c0.057-0.133,0.112-0.266,0.166-0.4C730.498,159.06,729.109,159.034,727.731,158.987z"/>
					</g>
				</g>
			</g>
		</g>
		
			<radialGradient id="SVGID_18_" cx="840.0234" cy="97.3662" r="27.5901" gradientTransform="matrix(1 0.0033 -0.0033 1 -131.7178 32.5503)" gradientUnits="userSpaceOnUse">
			<stop  offset="0" style="stop-color:#FFFFFF"/>
			<stop  offset="0.6236" style="stop-color:#FAED36"/>
			<stop  offset="0.9888" style="stop-color:#F99D1C"/>
		</radialGradient>
		<path fill="url(#SVGID_18_)" d="M692.943,127.941c-6.097-1.862-9.892-7.401-9.892-7.401c0.554,4.017,1.735,7.756,3.23,10.57
			l-0.007,0.001c0,0,1.332,2.796,5.508,7.372c0,0,0.947-1.714,2.541-3.641c3.393-3.672,13.34-2.861,13.34-2.861
			C701.594,129.398,699.203,129.853,692.943,127.941z"/>
	</g>
</g>
</svg>
