<?xml version="1.0" encoding="utf-8"?>
<!-- Generator: Adobe Illustrator 16.0.0, SVG Export Plug-In . SVG Version: 6.00 Build 0)  -->
<!DOCTYPE svg PUBLIC "-//W3C//DTD SVG 1.1//EN" "http://www.w3.org/Graphics/SVG/1.1/DTD/svg11.dtd">
<svg version="1.1" id="Laag_1" xmlns="http://www.w3.org/2000/svg" xmlns:xlink="http://www.w3.org/1999/xlink" x="0px" y="0px"
	 width="56.693px" height="56.693px" viewBox="42.519 42.519 56.693 56.693" enable-background="new 42.519 42.519 56.693 56.693"
	 xml:space="preserve">
<g>
	<path fill="#333333" d="M70.866,42.519c-15.656,0-28.347,12.691-28.347,28.347c0,15.655,12.691,28.347,28.347,28.347
		c15.655,0,28.347-12.691,28.347-28.347C99.213,55.21,86.522,42.519,70.866,42.519L70.866,42.519z M84.43,73.141L67.522,84.774
		c-0.47,0.321-1.019,0.486-1.567,0.486c-0.441,0-0.88-0.105-1.285-0.315c-0.908-0.48-1.478-1.422-1.478-2.446V59.234
		c0-1.025,0.57-1.966,1.478-2.446c0.909-0.477,2.005-0.411,2.852,0.171L84.43,68.591c0.748,0.515,1.195,1.367,1.195,2.275
		C85.626,71.775,85.178,72.627,84.43,73.141L84.43,73.141z"/>
</g>
</svg>
