<?xml version="1.0" encoding="utf-8"?>
<!-- Generator: Adobe Illustrator 16.0.0, SVG Export Plug-In . SVG Version: 6.00 Build 0)  -->
<!DOCTYPE svg PUBLIC "-//W3C//DTD SVG 1.1//EN" "http://www.w3.org/Graphics/SVG/1.1/DTD/svg11.dtd">
<svg version="1.1" id="Laag_1" xmlns="http://www.w3.org/2000/svg" xmlns:xlink="http://www.w3.org/1999/xlink" x="0px" y="0px"
	 width="141.732px" height="141.732px" viewBox="0 0 141.732 141.732" enable-background="new 0 0 141.732 141.732"
	 xml:space="preserve">
<g>
	<path fill="#333333" d="M70.366,0.834c-38.68,0-70.032,31.353-70.032,70.032s31.353,70.032,70.032,70.032
		s70.032-31.353,70.032-70.032S109.046,0.834,70.366,0.834L70.366,0.834z M103.878,76.488l-41.775,28.739
		c-1.161,0.795-2.515,1.202-3.871,1.202c-1.09,0-2.174-0.26-3.173-0.779c-2.243-1.188-3.651-3.514-3.651-6.045V42.128
		c0-2.533,1.408-4.858,3.651-6.044c2.244-1.178,4.954-1.016,7.044,0.422l41.775,28.738c1.849,1.272,2.954,3.377,2.954,5.622
		C106.832,73.111,105.727,75.216,103.878,76.488L103.878,76.488z M103.878,76.488"/>
</g>
</svg>
