<?xml version="1.0" encoding="utf-8"?>
<!-- Generator: Adobe Illustrator 16.0.0, SVG Export Plug-In . SVG Version: 6.00 Build 0)  -->
<!DOCTYPE svg PUBLIC "-//W3C//DTD SVG 1.1//EN" "http://www.w3.org/Graphics/SVG/1.1/DTD/svg11.dtd">
<svg version="1.1" id="Capa_1" xmlns="http://www.w3.org/2000/svg" xmlns:xlink="http://www.w3.org/1999/xlink" x="0px" y="0px"
	 width="420.941px" height="332.983px" viewBox="0 126.239 420.941 332.983" enable-background="new 0 126.239 420.941 332.983"
	 xml:space="preserve">
<g>
	<g id="XMLID_1_">
		<g>
			<polygon fill="#010002" points="0,416.134 19.39,416.134 20.54,416.134 38.21,416.134 57.02,416.134 57.02,397.345 
				38.21,397.345 20.54,397.345 20.54,245.175 39.31,245.175 58.64,245.175 58.64,226.385 39.31,226.385 20.54,226.385 
				20.02,226.385 0,226.385 			"/>
			<polygon fill="#010002" points="58.77,226.135 77.56,226.135 96.37,226.135 96.37,207.705 96.27,207.325 77.56,207.325 
				58.77,207.325 			"/>
			<polygon fill="#010002" points="58.12,435.475 86.28,435.475 114.46,435.475 114.46,416.685 86.28,416.685 58.12,416.685 			"/>
			<polygon fill="#010002" points="96.37,207.705 115.06,207.705 133.88,207.705 133.88,188.865 115.06,188.865 96.27,188.865 
				96.27,207.325 			"/>
			<polygon fill="#010002" points="134.28,188.715 153.09,188.715 171.88,188.715 171.88,170.525 171.28,169.895 153.09,169.895 
				134.28,169.895 			"/>
			<polygon fill="#010002" points="190.1,151.685 171.28,151.685 171.28,169.895 171.88,170.525 190.1,170.525 			"/>
			<path fill="#010002" d="M278,226.065h124.18h0.07v-18.79H278h-50v-18.19H209.21v18.17h-55.42v18.79
				C153.79,226.045,278,226.045,278,226.065z"/>
			<path fill="#FFFFFF" d="M20.54,397.345h17.67h18.81v18.789l1.1,0.551h28.16h28.18v18.79l1.08,0.55h65.66h65.67l0.619-0.08v-18.79
				h18.79l0.551-0.6v-18.61H248.31c0-0.03-37.22-0.03-37.22,0v-18.79h37.22h37.26h0.87v-38.43h-18.46H230.7v-18.79h37.28h37.23
				l0.52-0.5v-37.88h-18.46h-57.939v-18.81h57.939h34.28h2.95H402l0.18-0.7v-37.73v-0.25H278c0-0.02-124.21-0.02-124.21-0.02v-18.79
				h55.42v-18.17H228h0.5v-37.85h-9.521H190.5l-0.4,0.45v18.84h-18.22v18.19h-18.79h-18.81l-0.4,0.15v18.84h-18.82H96.37v18.43
				H77.56H58.77l-0.13,0.25v18.79H39.31H20.54V397.345z"/>
			<polygon fill="#010002" points="115.54,454.785 181.2,454.785 246.871,454.785 246.871,436.025 181.2,436.025 115.54,436.025 			
				"/>
			<polygon fill="#010002" points="190.5,151.235 218.98,151.235 228.5,151.235 228.5,189.085 228.5,189.615 247.31,189.615 
				247.31,151.235 247.41,151.235 247.41,132.415 218.98,132.415 190.5,132.415 			"/>
			<rect x="247.49" y="417.155" fill="#010002" width="18.79" height="18.79"/>
			<path fill="#010002" d="M211.09,397.945c0-0.03,37.22-0.03,37.22,0h18.521v18.61h18.79v-18.79h-0.051v-18.61h-37.26h-37.22
				V397.945z"/>
			<polygon fill="#010002" points="230.7,340.725 267.98,340.725 286.44,340.725 286.44,379.155 286.44,379.325 305.26,379.325 
				305.26,340.555 305.21,340.555 305.21,321.935 267.98,321.935 230.7,321.935 			"/>
			<polygon fill="#010002" points="305.73,283.555 305.73,321.435 324.52,321.435 324.52,283.535 402,283.535 402,264.745 
				324.5,264.745 321.55,264.745 287.27,264.745 229.331,264.745 229.331,283.555 287.27,283.555 			"/>
			<rect x="402.18" y="226.315" fill="#010002" width="18.76" height="37.73"/>
		</g>
		<g>
		</g>
	</g>
</g>
</svg>
